<svg width="21" height="21" viewBox="0 0 21 21" fill="none" xmlns="http://www.w3.org/2000/svg">
<g clip-path="url(#clip0_25653_988)">
<path d="M0.264648 7.25372C0.264648 4.72015 0.264648 3.45336 0.757714 2.48567C1.19143 1.63446 1.88348 0.942404 2.73469 0.508691C3.70239 0.015625 4.96917 0.015625 7.50274 0.015625H13.0266C15.5601 0.015625 16.8269 0.015625 17.7946 0.508691C18.6458 0.942404 19.3379 1.63446 19.7716 2.48567C20.2646 3.45336 20.2646 4.72015 20.2646 7.25372V12.7775C20.2646 15.3111 20.2646 16.5779 19.7716 17.5456C19.3379 18.3968 18.6458 19.0888 17.7946 19.5226C16.8269 20.0156 15.5601 20.0156 13.0266 20.0156H7.50274C4.96917 20.0156 3.70239 20.0156 2.73469 19.5226C1.88348 19.0888 1.19143 18.3968 0.757714 17.5456C0.264648 16.5779 0.264648 15.3111 0.264648 12.7775V7.25372Z" fill="#001E36"/>
<path d="M10.7681 14.7409H5.48189C5.39241 14.7409 5.34769 14.6905 5.34773 14.5895V5.85149C5.33784 5.78041 5.39919 5.71748 5.4685 5.72764H7.10534C7.15925 5.71986 7.20674 5.76956 7.19925 5.82399V13.0071H11.0498C11.1303 13.0071 11.1616 13.0484 11.1437 13.1309L10.9023 14.6171C10.9002 14.6919 10.8388 14.7401 10.7681 14.7409Z" fill="#31A8FF"/>
<path d="M12.111 7.89222H13.5735C13.6541 7.89294 13.7265 7.95007 13.7479 8.02984C13.855 8.2739 13.8682 8.56823 13.8686 8.83172C14.1194 8.53222 14.4219 8.28266 14.7608 8.09555C15.1244 7.88456 15.5365 7.77762 15.9541 7.78593C16.0234 7.77576 16.0848 7.83868 16.0749 7.90977V9.57481C16.0749 9.6391 16.03 9.67114 15.9407 9.67114C15.3217 9.62733 14.358 9.77733 13.9082 10.2766V14.606C13.9082 14.6885 13.8725 14.7298 13.8009 14.7298H12.2318C12.1547 14.7412 12.0867 14.67 12.0976 14.5922V9.89131C12.0976 9.26139 12.1109 8.61254 12.0171 7.98857C12.0027 7.93115 12.0563 7.87775 12.111 7.89222Z" fill="#31A8FF"/>
</g>
<defs>
<clipPath id="clip0_25653_988">
<rect width="20" height="20" fill="white" transform="translate(0.264648 0.015625)"/>
</clipPath>
</defs>
</svg>
