<svg width="21" height="21" viewBox="0 0 21 21" fill="none" xmlns="http://www.w3.org/2000/svg">
<g clip-path="url(#clip0_25653_976)">
<path d="M0.264648 7.25372C0.264648 4.72015 0.264648 3.45336 0.757714 2.48567C1.19143 1.63446 1.88348 0.942404 2.73469 0.508691C3.70239 0.015625 4.96917 0.015625 7.50274 0.015625H13.0266C15.5601 0.015625 16.8269 0.015625 17.7946 0.508691C18.6458 0.942404 19.3379 1.63446 19.7716 2.48567C20.2646 3.45336 20.2646 4.72015 20.2646 7.25372V12.7775C20.2646 15.3111 20.2646 16.5779 19.7716 17.5456C19.3379 18.3968 18.6458 19.0888 17.7946 19.5226C16.8269 20.0156 15.5601 20.0156 13.0266 20.0156H7.50274C4.96917 20.0156 3.70239 20.0156 2.73469 19.5226C1.88348 19.0888 1.19143 18.3968 0.757714 17.5456C0.264648 16.5779 0.264648 15.3111 0.264648 12.7775V7.25372Z" fill="#001E36"/>
<path d="M4.55029 14.6667V5.87186C4.55029 5.81203 4.57529 5.77784 4.63363 5.77784C5.49479 5.77784 6.35556 5.72656 7.21696 5.72656C8.61469 5.72656 10.1281 6.20449 10.6586 7.66673C10.7836 8.02571 10.8503 8.39323 10.8503 8.77785C10.8503 9.51289 10.6836 10.1197 10.3503 10.5984C9.41916 11.9354 7.80529 11.9146 6.35863 11.9146V14.6582C6.36994 14.7394 6.30072 14.7778 6.23363 14.7778H4.65029C4.58363 14.7778 4.55029 14.7437 4.55029 14.6667ZM6.36696 7.42742V10.2992C6.94057 10.3412 7.54081 10.3458 8.09196 10.1625C8.70041 9.98695 9.03363 9.46024 9.03363 8.82913C9.05054 8.29134 8.75749 7.77534 8.25863 7.58126C7.71412 7.35486 6.95473 7.3413 6.36696 7.42742Z" fill="#31A8FF"/>
<path d="M16.0479 9.73183C15.7958 9.59895 15.5272 9.50174 15.2496 9.44285C14.8929 9.3589 13.4859 9.06492 13.4853 9.80063C13.4978 10.2114 14.1498 10.4126 14.4379 10.5299C15.4492 10.8771 16.5936 11.4978 16.5711 12.7454C16.6021 14.2986 15.0972 14.9195 13.8073 14.9196C13.1358 14.9266 12.4362 14.8225 11.8216 14.5343C11.763 14.5032 11.7252 14.4368 11.7277 14.3692V12.883C11.7211 12.8234 11.7851 12.7714 11.8351 12.8142C12.4372 13.1784 13.151 13.3552 13.8476 13.3646C14.1551 13.3646 14.7645 13.3348 14.7599 12.883C14.7599 12.4494 14.0308 12.2501 13.7402 12.1399C13.3189 11.9895 12.9195 11.7812 12.5528 11.5207C12.0404 11.1552 11.719 10.5692 11.7277 9.92447C11.7247 8.46205 13.1099 7.80564 14.3574 7.80533C14.9406 7.80052 15.5668 7.84371 16.1097 8.08054C16.1878 8.10352 16.204 8.18575 16.2036 8.25943V9.64926C16.2086 9.73553 16.1128 9.76491 16.0479 9.73183Z" fill="#31A8FF"/>
</g>
<defs>
<clipPath id="clip0_25653_976">
<rect width="20" height="20" fill="white" transform="translate(0.264648 0.015625)"/>
</clipPath>
</defs>
</svg>
