<svg width="21" height="21" viewBox="0 0 21 21" fill="none" xmlns="http://www.w3.org/2000/svg">
<g clip-path="url(#clip0_25653_979)">
<path d="M0.264648 7.25372C0.264648 4.72015 0.264648 3.45336 0.757714 2.48567C1.19143 1.63446 1.88348 0.942404 2.73469 0.508691C3.70239 0.015625 4.96917 0.015625 7.50274 0.015625H13.0266C15.5601 0.015625 16.8269 0.015625 17.7946 0.508691C18.6458 0.942404 19.3379 1.63446 19.7716 2.48567C20.2646 3.45336 20.2646 4.72015 20.2646 7.25372V12.7775C20.2646 15.3111 20.2646 16.5779 19.7716 17.5456C19.3379 18.3968 18.6458 19.0888 17.7946 19.5226C16.8269 20.0156 15.5601 20.0156 13.0266 20.0156H7.50274C4.96917 20.0156 3.70239 20.0156 2.73469 19.5226C1.88348 19.0888 1.19143 18.3968 0.757714 17.5456C0.264648 16.5779 0.264648 15.3111 0.264648 12.7775V7.25372Z" fill="#470137"/>
<path d="M10.7262 5.89692L8.23069 10.1214L10.9006 14.6074C10.9561 14.7092 10.9006 14.7316 10.8201 14.7316H8.91497C8.78078 14.7316 8.68687 14.7268 8.6332 14.6349C8.45416 14.2772 8.27527 13.9217 8.09653 13.5685C7.9175 13.2154 7.72743 12.8554 7.52634 12.4883C7.32509 12.1215 7.12607 11.7499 6.9293 11.3737C6.75026 11.7407 6.55123 12.1076 6.35907 12.4745C6.16664 12.8416 5.97658 13.2062 5.78888 13.5685C5.60105 13.931 5.40875 14.2911 5.21197 14.6487C5.17612 14.7313 5.11342 14.7398 5.02411 14.7398H3.18605C3.11384 14.7398 3.10512 14.6855 3.14581 14.6212L5.73521 10.259L3.21287 5.88314C3.16705 5.82071 3.20648 5.75417 3.27997 5.7593H5.17169C5.2536 5.75467 5.32599 5.78559 5.37294 5.85564C5.53395 6.22265 5.71284 6.58959 5.90961 6.95649C6.10626 7.32351 6.30528 7.68588 6.50665 8.04358C6.7079 8.40136 6.90693 8.76373 7.07688 9.13068C7.25567 8.75462 7.4368 8.38767 7.62026 8.02983C7.80348 7.67205 7.99131 7.31197 8.18373 6.9496C8.37599 6.58731 8.56159 6.22724 8.74054 5.86939C8.76431 5.7909 8.82114 5.75112 8.90154 5.7593H10.6591C10.7262 5.7593 10.754 5.8509 10.7262 5.89692Z" fill="#FF61F6"/>
<path d="M14.5767 14.9103C13.3935 14.9287 12.1541 14.4416 11.5311 13.3622C11.2269 12.844 11.0748 12.195 11.0749 11.4151C11.0699 10.7835 11.2272 10.1617 11.5311 9.61241C12.3152 8.21086 13.8947 7.68573 15.3951 7.82352V5.11267C15.3951 5.04859 15.4219 5.01635 15.4756 5.01635H17.1661C17.2123 5.00957 17.2532 5.05151 17.2466 5.0989V13.2315C17.2466 13.567 17.2798 13.9014 17.3003 14.236C17.3036 14.2932 17.2705 14.3497 17.2197 14.3736C16.3845 14.7309 15.4807 14.9061 14.5767 14.9103ZM15.3951 13.2039V9.44729C14.1697 9.10681 12.9799 10.0402 12.9801 11.3325C12.951 12.6686 14.1027 13.5916 15.3951 13.2039Z" fill="#FF61F6"/>
</g>
<defs>
<clipPath id="clip0_25653_979">
<rect width="20" height="20" fill="white" transform="translate(0.264648 0.015625)"/>
</clipPath>
</defs>
</svg>
