<svg width="18" height="21" viewBox="0 0 18 21" fill="none" xmlns="http://www.w3.org/2000/svg">
<path d="M16.5358 4.09971L10.2307 0.353946C9.48498 -0.0867319 8.55278 -0.0867319 7.79007 0.353946L1.48499 4.09971C0.739225 4.54039 0.264648 5.37089 0.264648 6.2692V13.7607C0.264648 14.659 0.722275 15.4726 1.48499 15.9302L7.79007 19.676C8.16295 19.8963 8.58668 20.015 9.01041 20.015C9.43414 20.015 9.85786 19.8963 10.2307 19.676L16.5358 15.9302C17.2816 15.4895 17.7562 14.659 17.7562 13.7607V6.25225C17.7562 5.37089 17.2985 4.54039 16.5358 4.09971Z" fill="white"/>
<path d="M16.5358 4.10037L10.2307 0.354608C9.85786 0.134269 9.43414 0.015625 9.01041 0.015625C8.58668 0.015625 8.16295 0.134269 7.79007 0.354608L1.48499 4.10037C0.739225 4.54105 0.264648 5.37155 0.264648 6.26986V13.7614C0.264648 14.6597 0.722275 15.4732 1.48499 15.9309L7.79007 19.6766C8.16295 19.897 8.58668 20.0156 9.01041 20.0156C9.43414 20.0156 9.85786 19.897 10.2307 19.6766L16.5358 15.9309C17.2816 15.4902 17.7562 14.6597 17.7562 13.7614V6.25291C17.7562 5.37155 17.2985 4.54105 16.5358 4.10037ZM8.01041 19.2699L1.70533 15.5241C1.09516 15.1512 0.705326 14.4732 0.705326 13.7444V6.25291C0.705326 5.5241 1.09516 4.82918 1.70533 4.47325L8.01041 0.727489C8.31549 0.541049 8.65448 0.456302 9.01041 0.456302C9.36634 0.456302 9.70532 0.557998 10.0104 0.727489L16.3155 4.47325C16.8409 4.77833 17.1799 5.32071 17.2816 5.91393C17.0782 5.47325 16.6036 5.33766 16.0443 5.65969L10.0952 9.3546C9.34939 9.79528 8.80702 10.2699 8.80702 11.1682V18.5241C8.80702 19.0665 9.02736 19.4054 9.34939 19.5071C9.24769 19.5241 9.12905 19.541 9.01041 19.541C8.67142 19.558 8.31549 19.4563 8.01041 19.2699Z" fill="#2A3238"/>
<path d="M14.8916 14.4751L13.3154 15.4073C13.2815 15.4243 13.2476 15.4582 13.2476 15.509V15.9158C13.2476 15.9666 13.2815 15.9836 13.3154 15.9666L14.9086 15.0005C14.9425 14.9836 14.9594 14.9327 14.9594 14.8819V14.526C14.9594 14.4751 14.9255 14.4582 14.8916 14.4751Z" fill="#4DA925"/>
<path d="M11.5358 11.0133C11.5866 10.9794 11.6205 11.0133 11.6375 11.0811V11.6235C11.8578 11.5387 12.0612 11.5048 12.2477 11.5557C12.2816 11.5726 12.2985 11.6235 12.2816 11.6743L12.1629 12.1489C12.146 12.1828 12.129 12.2167 12.1121 12.2506C12.0951 12.2675 12.0951 12.2675 12.0782 12.2675C12.0612 12.2675 12.0443 12.2845 12.0273 12.2675C11.9426 12.2506 11.7561 12.1997 11.4511 12.3692C11.129 12.5387 11.0104 12.8099 11.0273 13.0133C11.0273 13.2675 11.1629 13.3353 11.5866 13.3353C12.1629 13.3523 12.4172 13.6065 12.4341 14.1828C12.4341 14.7591 12.129 15.3862 11.6544 15.7591L11.6714 16.3014C11.6714 16.3692 11.6375 16.437 11.5866 16.4709L11.2646 16.6574C11.2138 16.6913 11.1799 16.6574 11.1629 16.5896V16.0641C10.8917 16.1828 10.6205 16.1997 10.4341 16.1319C10.4002 16.115 10.3833 16.0641 10.4002 16.0133L10.5188 15.5218C10.5358 15.4879 10.5527 15.437 10.5697 15.4201C10.5866 15.4031 10.5866 15.4031 10.6036 15.4031C10.6205 15.3862 10.6375 15.3862 10.6544 15.4031C10.8409 15.4709 11.0951 15.437 11.3155 15.3184C11.6205 15.1658 11.807 14.8608 11.807 14.5557C11.807 14.2845 11.6544 14.1658 11.2985 14.1658C10.8409 14.1658 10.4172 14.0811 10.4002 13.4031C10.4002 12.8438 10.6883 12.2675 11.146 11.9116V11.3692C11.146 11.3014 11.1799 11.2336 11.2307 11.1997L11.5358 11.0133Z" fill="white"/>
</svg>
