<svg width="21" height="21" viewBox="0 0 21 21" fill="none" xmlns="http://www.w3.org/2000/svg">
<g clip-path="url(#clip0_25653_1012)">
<path fill-rule="evenodd" clip-rule="evenodd" d="M18.9247 5.99292C18.9245 5.66536 18.8545 5.37592 18.7128 5.12751C18.5736 4.88323 18.3652 4.67849 18.0857 4.51661C15.7782 3.18611 13.4685 1.85969 11.1618 0.52783C10.5399 0.168808 9.93696 0.181897 9.31969 0.546073C8.40124 1.08773 3.80292 3.72221 2.43269 4.51587C1.86838 4.84254 1.59379 5.34249 1.59366 5.99231C1.59277 8.66802 1.59366 11.3437 1.59277 14.0194C1.59291 14.3398 1.65998 14.6236 1.79541 14.8683C1.93464 15.12 2.14596 15.3303 2.43194 15.4959C3.80225 16.2895 8.40118 18.9238 9.31942 19.4656C9.93696 19.83 10.5399 19.843 11.162 19.4839C13.4688 18.1519 15.7786 16.8256 18.0864 15.4951C18.3724 15.3296 18.5837 15.1191 18.723 14.8676C18.8582 14.623 18.9254 14.3391 18.9255 14.0187C18.9255 14.0187 18.9255 8.6687 18.9247 5.99292Z" fill="#5C8DBC"/>
<path fill-rule="evenodd" clip-rule="evenodd" d="M10.2857 9.98438L1.79541 14.8729C1.93464 15.1246 2.14596 15.3349 2.43194 15.5005C3.80225 16.2941 8.40118 18.9284 9.31942 19.4702C9.93696 19.8346 10.5399 19.8476 11.162 19.4884C13.4688 18.1565 15.7786 16.8301 18.0864 15.4996C18.3724 15.3342 18.5837 15.1237 18.723 14.8722L10.2857 9.98438Z" fill="#1A4674"/>
<path fill-rule="evenodd" clip-rule="evenodd" d="M7.771 11.4324C8.26504 12.2949 9.19379 12.8766 10.2592 12.8766C11.3312 12.8766 12.2652 12.2875 12.7568 11.4158L10.2857 9.98438L7.771 11.4324Z" fill="#1A4674"/>
<path fill-rule="evenodd" clip-rule="evenodd" d="M18.9246 5.99822C18.9245 5.67067 18.8544 5.38123 18.7128 5.13281L10.2856 9.98511L18.7229 14.8729C18.8582 14.6283 18.9254 14.3444 18.9255 14.024C18.9255 14.024 18.9255 8.674 18.9246 5.99822Z" fill="#1B598E"/>
<path fill-rule="evenodd" clip-rule="evenodd" d="M18.4609 10.3342H17.8016V10.9936H17.1422V10.3342H16.4829V9.67494H17.1422V9.01562H17.8016V9.67494H18.4609V10.3342Z" fill="white"/>
<path fill-rule="evenodd" clip-rule="evenodd" d="M16.055 10.3342H15.3958V10.9936H14.7365V10.3342H14.0771V9.67494H14.7365V9.01562H15.3958V9.67494H16.055V10.3342Z" fill="white"/>
<path fill-rule="evenodd" clip-rule="evenodd" d="M12.7569 11.4113C12.2654 12.283 11.3314 12.8721 10.2594 12.8721C9.19397 12.8721 8.26522 12.2904 7.77117 11.4279C7.53117 11.0088 7.39316 10.5235 7.39316 10.0059C7.39316 8.42297 8.67646 7.13974 10.2594 7.13974C11.3179 7.13974 12.2418 7.71422 12.7383 8.5679L15.2435 7.1253C14.2477 5.40641 12.3887 4.25 10.2594 4.25C7.08039 4.25 4.50342 6.82704 4.50342 10.0059C4.50342 11.0488 4.78086 12.0268 5.26575 12.8703C6.25899 14.5983 8.12335 15.7618 10.2594 15.7618C12.3993 15.7618 14.2666 14.5936 15.2584 12.8606L12.7569 11.4113Z" fill="white"/>
</g>
<defs>
<clipPath id="clip0_25653_1012">
<rect width="20" height="20" fill="white" transform="translate(0.264648 0.015625)"/>
</clipPath>
</defs>
</svg>
