<svg width="21" height="21" viewBox="0 0 21 21" fill="none" xmlns="http://www.w3.org/2000/svg">
<path fill-rule="evenodd" clip-rule="evenodd" d="M3.04146 18.0163L1.43652 0.015625H19.0722L17.4656 18.0133L10.2437 20.0156L3.04146 18.0163Z" fill="#0071BC"/>
<path fill-rule="evenodd" clip-rule="evenodd" d="M10.269 18.4851L16.0974 16.8817L17.463 1.51562H10.269V18.4851Z" fill="#29ABE2"/>
<path fill-rule="evenodd" clip-rule="evenodd" d="M5.11035 8.12991L5.30368 10.3344L10.2693 8.12991V5.92188L5.11035 8.12991Z" fill="#B3B3B3"/>
<path fill-rule="evenodd" clip-rule="evenodd" d="M15.7687 3.5625L10.269 5.91947V8.1275L15.579 5.76696L15.7687 3.5625Z" fill="#E6E6E6"/>
<path fill-rule="evenodd" clip-rule="evenodd" d="M10.269 13.8937L10.2519 13.8963L7.78932 13.2349L7.62843 11.4766H5.41211L5.7214 14.9407L10.2514 16.195L10.269 16.1908V13.8937Z" fill="#E6E6E6"/>
<path fill-rule="evenodd" clip-rule="evenodd" d="M10.269 8.125V10.3295H12.9652L12.7201 13.2116L10.269 13.8948V16.1918L14.784 14.9375L15.3786 8.125H10.269Z" fill="white"/>
<path fill-rule="evenodd" clip-rule="evenodd" d="M10.2693 8.125H5.11035L5.30368 10.3295H10.2693V8.125Z" fill="#E6E6E6"/>
<path fill-rule="evenodd" clip-rule="evenodd" d="M10.2692 5.76696V3.5625H10.2468H4.71826L4.91389 5.76696H10.2692Z" fill="#E6E6E6"/>
<path fill-rule="evenodd" clip-rule="evenodd" d="M10.269 3.5625V5.73932V5.76696H15.579L15.7687 3.5625H10.269Z" fill="white"/>
</svg>
