<svg width="21" height="21" viewBox="0 0 21 21" fill="none" xmlns="http://www.w3.org/2000/svg">
<g clip-path="url(#clip0_25653_943)">
<path d="M5.64005 5.42569L4.35498 4.14062V13.4076L4.37308 13.842C4.37308 14.0411 4.40928 14.2764 4.48168 14.5117L14.6536 18.0954L17.1876 16.9732L5.64005 5.42569Z" fill="#00C4B3"/>
<path d="M17.1878 16.9772L14.6538 18.0993L4.5 14.5156C4.6991 15.2577 5.11538 16.0903 5.58597 16.5609L8.89819 19.855L16.2828 19.8731L17.1878 16.9772Z" fill="#22D3C5"/>
<path d="M4.39146 4.14062L0.445754 10.1135C0.119962 10.4574 0.282858 11.1813 0.807745 11.7243L3.08829 14.023L4.51815 14.5298C4.46385 14.2945 4.40955 14.0592 4.40955 13.8601L4.39146 13.4257V4.14062Z" fill="#0075C9"/>
<path d="M14.726 4.2517C14.4907 4.1974 14.2554 4.1612 14.0563 4.1431L13.6039 4.125H4.35498L17.1876 16.9576L18.3097 14.4236L14.726 4.2517Z" fill="#0075C9"/>
<path d="M16.7714 5.33597C16.3008 4.86538 15.4863 4.431 14.7261 4.25L18.3098 14.4219L17.1876 16.9559L19.9388 16.069V8.52149L16.7714 5.33597Z" fill="#00A8E1"/>
<path d="M14.2193 2.8417L11.9206 0.561163C11.3957 0.0362759 10.6718 -0.12662 10.3098 0.199172L4.33691 4.14487H13.5858L14.0383 4.16297C14.2374 4.16297 14.4727 4.19917 14.708 4.27157L14.2193 2.8417Z" fill="#00C4B3"/>
</g>
<defs>
<clipPath id="clip0_25653_943">
<rect width="20" height="20" fill="white" transform="translate(0.264648 0.015625)"/>
</clipPath>
</defs>
</svg>
