<svg width="16" height="21" viewBox="0 0 16 21" fill="none" xmlns="http://www.w3.org/2000/svg">
<g clip-path="url(#clip0_25653_1018)">
<path d="M7.30593 0.515625H10.5742V15.4952C8.90013 15.8119 7.66774 15.9365 6.33431 15.9365C2.34255 15.9323 0.264648 14.149 0.264648 10.724C0.264648 7.42397 2.46873 5.28228 5.88423 5.28228C6.41424 5.28228 6.818 5.32399 7.30593 5.44895V0.515625ZM7.42046 8.14844C7.03767 8.02343 6.72225 7.98177 6.31842 7.98177C4.66539 7.98177 3.71057 8.99008 3.71057 10.7571C3.71057 12.4776 4.62337 13.4276 6.29744 13.4276C6.65912 13.4276 6.95357 13.4072 7.42046 13.3447V8.14844Z" fill="#2BA977"/>
<path d="M15.9186 5.68445V13.1845C15.9186 15.7674 15.7252 17.0095 15.1573 18.0804C14.6273 19.1099 13.9291 19.7591 12.4863 20.4761L9.45361 19.047C10.8964 18.3765 11.5946 17.7841 12.0405 16.8799C12.5073 15.9554 12.6545 14.8845 12.6545 12.0678V5.68451L15.9186 5.68445ZM12.3252 0.515625H15.5934V3.83647H12.3252V0.515625Z" fill="#2BA977"/>
</g>
<defs>
<clipPath id="clip0_25653_1018">
<rect width="15.704" height="20" fill="white" transform="translate(0.264648 0.515625)"/>
</clipPath>
</defs>
</svg>
