<svg width="21" height="21" viewBox="0 0 21 21" fill="none" xmlns="http://www.w3.org/2000/svg">
<g clip-path="url(#clip0_25653_1000)">
<path fill-rule="evenodd" clip-rule="evenodd" d="M11.7957 7.95312H13.5613V9.75H14.452C14.8582 9.75 15.2801 9.67188 15.6707 9.54688C15.8582 9.48438 16.077 9.39062 16.2645 9.28125C16.0145 8.95312 15.8895 8.54688 15.8582 8.14062C15.8113 7.59375 15.9207 6.875 16.2957 6.45313L16.4832 6.23438L16.702 6.40625C17.2645 6.85938 17.7176 7.46875 17.8113 8.1875C18.4832 7.98438 19.2645 8.03125 19.8582 8.375L20.0926 8.51563L19.9676 8.76562C19.4676 9.73438 18.4207 10.0469 17.4051 9.98438C15.8738 13.7812 12.5613 15.5781 8.5301 15.5781C6.45197 15.5781 4.54572 14.7969 3.45197 12.9531L3.43635 12.9219L3.2801 12.5938C2.9051 11.7812 2.79572 10.8906 2.87385 10L2.9051 9.73438H4.4051V7.95312H6.17072V6.20312H9.68635V4.4375H11.7957V7.95312Z" fill="#3A4D54"/>
<path d="M17.5148 8.625C17.6398 7.70312 16.9523 6.98438 16.5148 6.64062C16.0305 7.20312 15.9523 8.70312 16.718 9.32812C16.2805 9.70312 15.3898 10.0625 14.4523 10.0625H3.17108C3.07733 11.0312 3.2492 11.9219 3.63983 12.6875L3.76483 12.9219C3.84295 13.0625 3.9367 13.1875 4.03045 13.3281C4.4992 13.3594 4.92108 13.375 5.3117 13.3594C6.07733 13.3438 6.70233 13.25 7.1867 13.0937C7.26483 13.0625 7.32733 13.1094 7.35858 13.1719C7.38983 13.25 7.34295 13.3125 7.28045 13.3438C7.21795 13.3594 7.15545 13.3906 7.07733 13.4062C6.70233 13.5156 6.29608 13.5781 5.78045 13.6094H5.6867C5.48358 13.625 5.26483 13.625 5.03045 13.625C4.78045 13.625 4.54608 13.625 4.26483 13.6094C5.20233 14.6719 6.67108 15.2969 8.51483 15.2969C12.4211 15.2969 15.7336 13.5625 17.1867 9.6875C18.2336 9.79688 19.2336 9.53125 19.6867 8.64062C18.9836 8.21875 18.0461 8.35937 17.5148 8.625Z" fill="#00AADA"/>
<path d="M17.5145 8.625C17.6395 7.70312 16.952 6.98438 16.5145 6.64062C16.0301 7.20313 15.952 8.70312 16.7176 9.32812C16.2801 9.70312 15.3895 10.0625 14.452 10.0625H3.827C3.78013 11.5469 4.327 12.6719 5.31138 13.3438C6.077 13.3281 6.702 13.2344 7.18638 13.0781C7.2645 13.0469 7.327 13.0938 7.35825 13.1562C7.3895 13.2344 7.34263 13.2969 7.28013 13.3281C7.21763 13.3438 7.15513 13.375 7.077 13.3906C6.702 13.5 6.2645 13.5781 5.74888 13.6094L5.73325 13.5938C7.06138 14.2813 8.98325 14.2656 11.202 13.4219C13.6708 12.4688 15.9833 10.6563 17.5926 8.59375C17.5614 8.60938 17.5301 8.60937 17.5145 8.625Z" fill="#28B8EB"/>
<path d="M3.18652 11.2344C3.24902 11.75 3.40527 12.2344 3.63965 12.6875L3.76465 12.9219C3.84277 13.0625 3.93652 13.1875 4.03027 13.3281C4.49902 13.3594 4.9209 13.375 5.31152 13.3594C6.07715 13.3438 6.70215 13.25 7.18652 13.0937C7.26465 13.0625 7.32715 13.1094 7.3584 13.1719C7.38965 13.25 7.34277 13.3125 7.28027 13.3438C7.21777 13.3594 7.15527 13.3906 7.07715 13.4062C6.70215 13.5156 6.26465 13.5937 5.74902 13.625H5.68652C5.4834 13.6406 5.26465 13.6406 5.0459 13.6406C4.7959 13.6406 4.5459 13.6406 4.28027 13.625C5.21777 14.6875 6.70215 15.3125 8.5459 15.3125C11.8896 15.3125 14.7959 14.0469 16.4834 11.25H3.18652V11.2344Z" fill="#028BB8"/>
<path d="M3.93652 11.2344C4.13965 12.1406 4.6084 12.8594 5.31152 13.3438C6.07715 13.3281 6.70215 13.2344 7.18652 13.0781C7.26465 13.0469 7.32715 13.0937 7.3584 13.1562C7.38965 13.2344 7.34277 13.2969 7.28027 13.3281C7.21777 13.3437 7.15527 13.375 7.07715 13.3906C6.70215 13.5 6.26465 13.5781 5.7334 13.6094C7.06152 14.2969 8.9834 14.2813 11.1865 13.4375C12.5146 12.9219 13.8115 12.1563 14.9678 11.2344H3.93652Z" fill="#019BC6"/>
<path fill-rule="evenodd" clip-rule="evenodd" d="M4.70215 8.25H6.2334V9.78125H4.70215V8.25ZM4.82715 8.375H4.95215V9.64062H4.82715V8.375ZM5.0459 8.375H5.1709V9.64062H5.0459V8.375ZM5.28027 8.375H5.40527V9.64062H5.28027V8.375ZM5.51465 8.375H5.63965V9.64062H5.51465V8.375ZM5.74902 8.375H5.87402V9.64062H5.74902V8.375ZM5.9834 8.375H6.1084V9.64062H5.9834V8.375ZM6.45215 6.5H7.9834V8.03125H6.45215V6.5ZM6.59277 6.625H6.71777V7.89063H6.59277V6.625ZM6.81152 6.625H6.93652V7.89063H6.81152V6.625ZM7.0459 6.625H7.1709V7.89063H7.0459V6.625ZM7.28027 6.625H7.40527V7.89063H7.28027V6.625ZM7.49902 6.625H7.62402V7.89063H7.49902V6.625ZM7.7334 6.625H7.8584V7.89063H7.7334V6.625Z" fill="#00ACD3"/>
<path fill-rule="evenodd" clip-rule="evenodd" d="M6.45215 8.25H7.9834V9.78125H6.45215V8.25ZM6.59277 8.375H6.71777V9.64062H6.59277V8.375ZM6.81152 8.375H6.93652V9.64062H6.81152V8.375ZM7.0459 8.375H7.1709V9.64062H7.0459V8.375ZM7.28027 8.375H7.40527V9.64062H7.28027V8.375ZM7.49902 8.375H7.62402V9.64062H7.49902V8.375ZM7.7334 8.375H7.8584V9.64062H7.7334V8.375Z" fill="#23C2EE"/>
<path fill-rule="evenodd" clip-rule="evenodd" d="M8.21777 8.25H9.74902V9.78125H8.21777V8.25ZM8.34277 8.375H8.46777V9.64062H8.34277V8.375ZM8.57715 8.375H8.70215V9.64062H8.57715V8.375ZM8.81152 8.375H8.93652V9.64062H8.81152V8.375ZM9.03027 8.375H9.15527V9.64062H9.03027V8.375ZM9.26465 8.375H9.38965V9.64062H9.26465V8.375ZM9.49902 8.375H9.62402V9.64062H9.49902V8.375Z" fill="#00ACD3"/>
<path fill-rule="evenodd" clip-rule="evenodd" d="M8.21777 6.5H9.74902V8.03125H8.21777V6.5ZM8.34277 6.625H8.46777V7.89063H8.34277V6.625ZM8.57715 6.625H8.70215V7.89063H8.57715V6.625ZM8.81152 6.625H8.93652V7.89063H8.81152V6.625ZM9.03027 6.625H9.15527V7.89063H9.03027V6.625ZM9.26465 6.625H9.38965V7.89063H9.26465V6.625ZM9.49902 6.625H9.62402V7.89063H9.49902V6.625ZM9.9834 8.25H11.5146V9.78125H9.9834V8.25ZM10.1084 8.375H10.2334V9.64062H10.1084V8.375ZM10.3428 8.375H10.4678V9.64062H10.3428V8.375ZM10.5615 8.375H10.6865V9.64062H10.5615V8.375ZM10.7959 8.375H10.9209V9.64062H10.7959V8.375ZM11.0303 8.375H11.1553V9.64062H11.0303V8.375ZM11.2646 8.375H11.3896V9.64062H11.2646V8.375Z" fill="#23C2EE"/>
<path fill-rule="evenodd" clip-rule="evenodd" d="M9.9834 6.5H11.5146V8.03125H9.9834V6.5ZM10.1084 6.625H10.2334V7.89063H10.1084V6.625ZM10.3428 6.625H10.4678V7.89063H10.3428V6.625ZM10.5615 6.625H10.6865V7.89063H10.5615V6.625ZM10.7959 6.625H10.9209V7.89063H10.7959V6.625ZM11.0303 6.625H11.1553V7.89063H11.0303V6.625ZM11.2646 6.625H11.3896V7.89063H11.2646V6.625Z" fill="#00ACD3"/>
<path fill-rule="evenodd" clip-rule="evenodd" d="M9.9834 4.73438H11.5146V6.26562H9.9834V4.73438ZM10.1084 4.85937H10.2334V6.125H10.1084V4.85937ZM10.3428 4.85937H10.4678V6.125H10.3428V4.85937ZM10.5615 4.85937H10.6865V6.125H10.5615V4.85937ZM10.7959 4.85937H10.9209V6.125H10.7959V4.85937ZM11.0303 4.85937H11.1553V6.125H11.0303V4.85937ZM11.2646 4.85937H11.3896V6.125H11.2646V4.85937Z" fill="#23C2EE"/>
<path fill-rule="evenodd" clip-rule="evenodd" d="M11.749 8.25H13.2803V9.78125H11.749V8.25ZM11.874 8.375H11.999V9.64062H11.874V8.375ZM12.0928 8.375H12.2178V9.64062H12.0928V8.375ZM12.3271 8.375H12.4521V9.64062H12.3271V8.375ZM12.5615 8.375H12.6865V9.64062H12.5615V8.375ZM12.7959 8.375H12.9209V9.64062H12.7959V8.375ZM13.0303 8.375H13.1553V9.64062H13.0303V8.375Z" fill="#00ACD3"/>
<path fill-rule="evenodd" clip-rule="evenodd" d="M7.88965 12.25C8.12402 12.25 8.31152 12.4375 8.31152 12.6719C8.31152 12.9062 8.12402 13.0937 7.88965 13.0937C7.65527 13.0937 7.46777 12.9062 7.46777 12.6719C7.46777 12.4375 7.65527 12.25 7.88965 12.25Z" fill="#D4EEF1"/>
<path fill-rule="evenodd" clip-rule="evenodd" d="M7.88965 12.375C7.9209 12.375 7.96777 12.375 7.99902 12.3906C7.96777 12.4062 7.93652 12.4531 7.93652 12.5C7.93652 12.5625 7.99902 12.625 8.06152 12.625C8.1084 12.625 8.15527 12.5938 8.1709 12.5625C8.18652 12.5938 8.18652 12.6406 8.18652 12.6719C8.18652 12.8437 8.0459 12.9688 7.88965 12.9688C7.71777 12.9688 7.59277 12.8281 7.59277 12.6719C7.59277 12.5156 7.71777 12.375 7.88965 12.375ZM0.436523 11.3906H20.0303C19.6084 11.2813 18.6865 11.1406 18.8271 10.5781C18.0459 11.4687 16.1865 11.2031 15.7021 10.7656C15.1709 11.5313 12.1084 11.2344 11.9053 10.6406C11.249 11.4219 9.20215 11.4219 8.5459 10.6406C8.32715 11.2344 5.26465 11.5313 4.74902 10.7656C4.28027 11.2031 2.40527 11.4687 1.62402 10.5781C1.7959 11.125 0.858398 11.2813 0.436523 11.3906Z" fill="#3A4D54"/>
<path d="M9.01465 15.2969C7.96777 14.7969 7.40527 14.125 7.07715 13.3906C6.68652 13.5 6.21777 13.5781 5.68652 13.6094C5.4834 13.625 5.26465 13.625 5.0459 13.625C4.78027 13.625 4.51465 13.625 4.2334 13.6094C5.1709 14.5469 6.3584 15.2813 8.53027 15.2969H9.01465Z" fill="#BFDBE0"/>
<path d="M7.46777 14.0625C7.32715 13.8594 7.18652 13.625 7.07715 13.3906C6.68652 13.5 6.21777 13.5781 5.68652 13.6094C6.0459 13.7969 6.57715 13.9844 7.46777 14.0625Z" fill="#D4EEF1"/>
</g>
<defs>
<clipPath id="clip0_25653_1000">
<rect width="20" height="20" fill="white" transform="translate(0.264648 0.015625)"/>
</clipPath>
</defs>
</svg>
