<svg width="21" height="21" viewBox="0 0 21 21" fill="none" xmlns="http://www.w3.org/2000/svg">
<g clip-path="url(#clip0_25653_982)">
<path d="M6.95736 20.0182C8.79736 20.0182 10.2907 18.5249 10.2907 16.6849V13.3516H6.95736C5.11736 13.3516 3.62402 14.8449 3.62402 16.6849C3.62402 18.5249 5.11736 20.0182 6.95736 20.0182Z" fill="#0ACF83"/>
<path d="M3.62402 10.013C3.62402 8.17302 5.11736 6.67969 6.95736 6.67969H10.2907V13.3464H6.95736C5.11736 13.3464 3.62402 11.853 3.62402 10.013Z" fill="#A259FF"/>
<path d="M3.62402 3.34896C3.62402 1.50896 5.11736 0.015625 6.95736 0.015625H10.2907V6.68229H6.95736C5.11736 6.68229 3.62402 5.18896 3.62402 3.34896Z" fill="#F24E1E"/>
<path d="M10.2905 0.015625H13.6239C15.4639 0.015625 16.9572 1.50896 16.9572 3.34896C16.9572 5.18896 15.4639 6.68229 13.6239 6.68229H10.2905V0.015625Z" fill="#FF7262"/>
<path d="M16.9572 10.013C16.9572 11.853 15.4639 13.3464 13.6239 13.3464C11.7839 13.3464 10.2905 11.853 10.2905 10.013C10.2905 8.17302 11.7839 6.67969 13.6239 6.67969C15.4639 6.67969 16.9572 8.17302 16.9572 10.013Z" fill="#1ABCFE"/>
</g>
<defs>
<clipPath id="clip0_25653_982">
<rect width="20" height="20" fill="white" transform="translate(0.264648 0.015625)"/>
</clipPath>
</defs>
</svg>
