<svg width="21" height="21" viewBox="0 0 21 21" fill="none" xmlns="http://www.w3.org/2000/svg">
<g clip-path="url(#clip0_25653_1003)">
<path d="M2.99902 16.1589L3.1201 15.9894L8.84759 5.12174L8.85969 5.00669L6.33489 0.264229C6.12336 -0.133037 5.52786 -0.0325946 5.45844 0.412115L2.99902 16.1589Z" fill="#FFC24A"/>
<path d="M3.07031 16.0336L3.1619 15.855L8.82939 5.10119L6.3109 0.339429C6.10159 -0.0536756 5.57006 0.0465348 5.50137 0.486585L3.07031 16.0336Z" fill="#FFA712"/>
<path d="M10.7005 8.59062L12.5804 6.66532L10.7 3.07553C10.5215 2.73573 10.0231 2.73475 9.84643 3.07553L8.8418 4.99157V5.15475L10.7005 8.59062Z" fill="#F4BD62"/>
<path d="M10.6669 8.51589L12.4945 6.64413L10.6669 3.16404C10.4933 2.8337 10.0717 2.79908 9.90003 3.13039L8.89006 5.07611L8.85986 5.17558L10.6669 8.51589Z" fill="#FFA50E"/>
<path d="M2.99902 16.1589L3.05391 16.1037L3.25331 16.0227L10.5822 8.72103L10.675 8.46827L8.84678 4.98438L2.99902 16.1589Z" fill="#F6820C"/>
<path d="M10.935 19.8392L17.5678 16.14L15.6737 4.47484C15.6145 4.10987 15.1667 3.96558 14.9055 4.22728L2.99902 16.1568L9.59378 19.8389C10.0106 20.0716 10.5181 20.0717 10.935 19.8392Z" fill="#FDE068"/>
<path d="M17.5086 16.1081L15.6289 4.53146C15.5701 4.16926 15.1977 4.01937 14.9385 4.27908L3.07275 16.1332L9.59507 19.7788C10.0087 20.0098 10.5124 20.0099 10.9261 19.7792L17.5086 16.1081Z" fill="#FCCA3F"/>
<path d="M10.935 19.7292C10.5181 19.9617 10.0106 19.9616 9.59378 19.7289L3.05214 16.0997L2.99902 16.1558L9.59378 19.8378C10.0106 20.0705 10.5181 20.0707 10.935 19.8382L17.5678 16.139L17.5516 16.0391L10.935 19.7292Z" fill="#EEAB37"/>
</g>
<defs>
<clipPath id="clip0_25653_1003">
<rect width="20" height="20" fill="white" transform="translate(0.264648 0.015625)"/>
</clipPath>
</defs>
</svg>
