<svg width="21" height="21" viewBox="0 0 21 21" fill="none" xmlns="http://www.w3.org/2000/svg">
<path fill-rule="evenodd" clip-rule="evenodd" d="M10.2647 0.484375C4.87199 0.484375 0.499023 4.85653 0.499023 10.2501C0.499023 14.5648 3.2972 18.2254 7.17741 19.5167C7.66547 19.6071 7.84465 19.3049 7.84465 19.0469C7.84465 18.8141 7.83559 18.0448 7.83139 17.2288C5.11456 17.8195 4.54128 16.0765 4.54128 16.0765C4.09704 14.9478 3.45697 14.6476 3.45697 14.6476C2.57093 14.0415 3.52376 14.054 3.52376 14.054C4.50441 14.1229 5.02076 15.0603 5.02076 15.0603C5.89177 16.5533 7.30533 16.1217 7.8626 15.8721C7.95025 15.241 8.20334 14.8101 8.48262 14.5663C6.31352 14.3193 4.03333 13.482 4.03333 9.74003C4.03333 8.67383 4.41481 7.80267 5.03952 7.11877C4.93813 6.8728 4.60386 5.87954 5.13413 4.53439C5.13413 4.53439 5.95419 4.27193 7.82039 5.53541C8.59938 5.31904 9.4348 5.21053 10.2647 5.20681C11.0947 5.21053 11.9307 5.31904 12.7112 5.53541C14.5751 4.27193 15.394 4.53439 15.394 4.53439C15.9256 5.87954 15.5912 6.8728 15.4898 7.11877C16.1159 7.80267 16.4948 8.67383 16.4948 9.74003C16.4948 13.4909 14.2103 14.3168 12.0357 14.5585C12.386 14.8616 12.6981 15.4559 12.6981 16.367C12.6981 17.6737 12.6868 18.7253 12.6868 19.0469C12.6868 19.3068 12.8625 19.6113 13.3575 19.5154C17.2357 18.2227 20.0303 14.5634 20.0303 10.2501C20.0303 4.85653 15.658 0.484375 10.2647 0.484375ZM4.1566 14.3958C4.13509 14.4443 4.05876 14.4589 3.98922 14.4256C3.91839 14.3937 3.87861 14.3276 3.90157 14.2789C3.92259 14.2289 3.99909 14.215 4.06976 14.2485C4.14075 14.2804 4.18118 14.3472 4.1566 14.3958ZM4.63696 14.8245C4.59039 14.8676 4.49934 14.8476 4.43757 14.7793C4.37369 14.7113 4.36172 14.6202 4.40894 14.5764C4.45697 14.5332 4.54527 14.5534 4.60931 14.6215C4.67319 14.6904 4.68564 14.7808 4.63696 14.8245ZM4.96651 15.3729C4.90668 15.4144 4.80884 15.3754 4.74835 15.2886C4.68852 15.2018 4.68852 15.0976 4.74965 15.0559C4.81029 15.0142 4.90668 15.0517 4.96797 15.1379C5.02764 15.2262 5.02764 15.3303 4.96651 15.3729ZM5.52385 16.008C5.47032 16.067 5.35631 16.0512 5.27286 15.9706C5.18748 15.8919 5.1637 15.7801 5.21739 15.7211C5.27157 15.6619 5.38623 15.6786 5.47032 15.7585C5.55506 15.8371 5.58093 15.9496 5.52385 16.008ZM6.24415 16.2224C6.22054 16.2989 6.11073 16.3337 6.00012 16.3012C5.88967 16.2677 5.81738 16.1781 5.8397 16.1008C5.86266 16.0238 5.97295 15.9876 6.08437 16.0224C6.19466 16.0557 6.26711 16.1446 6.24415 16.2224ZM7.06388 16.3134C7.06663 16.3939 6.97284 16.4607 6.85673 16.4621C6.73997 16.4647 6.64553 16.3996 6.64423 16.3203C6.64423 16.239 6.73592 16.1728 6.85268 16.1709C6.9688 16.1686 7.06388 16.2333 7.06388 16.3134ZM7.86918 16.2825C7.88309 16.3611 7.80239 16.4418 7.68709 16.4633C7.57373 16.484 7.46877 16.4355 7.45438 16.3575C7.44031 16.277 7.52246 16.1963 7.63566 16.1754C7.75113 16.1554 7.85447 16.2026 7.86918 16.2825Z" fill="white"/>
</svg>
