<svg width="21" height="21" viewBox="0 0 21 21" fill="none" xmlns="http://www.w3.org/2000/svg">
<g clip-path="url(#clip0_25653_961)">
<path d="M19.928 7.99963L19.9 7.928L17.1811 0.833614C17.1258 0.694477 17.028 0.576346 16.9017 0.496082C16.7744 0.415737 16.6253 0.376882 16.475 0.384881C16.3247 0.392881 16.1806 0.447339 16.0625 0.54074C15.9456 0.63451 15.8613 0.762814 15.8216 0.907352L13.9833 6.53319H6.54622L4.708 0.907352C4.66831 0.762814 4.58399 0.63451 4.46706 0.54074C4.34952 0.446711 4.20548 0.391843 4.05517 0.383834C3.90486 0.375825 3.75581 0.415077 3.62894 0.496082C3.50205 0.576017 3.40385 0.694221 3.34853 0.833614L0.626476 7.93731L0.598434 8.00794C0.207683 9.03106 0.159652 10.1534 0.461562 11.2061C0.763472 12.2589 1.399 13.1852 2.27259 13.8457L2.28297 13.8529L2.30686 13.8716L6.45382 16.9759L8.5039 18.5286L9.75022 19.4726C9.89659 19.5832 10.0751 19.6431 10.2586 19.6431C10.442 19.6431 10.6205 19.5832 10.767 19.4726L12.0132 18.5286L14.0643 16.9759L18.2352 13.8529L18.2466 13.8446C19.1232 13.1848 19.7612 12.2577 20.0645 11.2033C20.3679 10.1489 20.32 9.02444 19.928 7.99963Z" fill="#E24329"/>
<path d="M19.9286 8.00131L19.9006 7.92969C18.5745 8.20294 17.325 8.76494 16.2407 9.57575L10.27 14.1007C12.3056 15.6399 14.0774 16.9776 14.0774 16.9776L18.2482 13.8546L18.2596 13.8463C19.134 13.1848 19.7696 12.2569 20.0706 11.2027C20.3717 10.1484 20.3218 9.02481 19.9286 8.00131Z" fill="#FC6D26"/>
<path d="M6.45703 16.9784L8.50403 18.5311L9.75028 19.4751C9.89672 19.5857 10.0752 19.6456 10.2587 19.6456C10.4422 19.6456 10.6207 19.5857 10.767 19.4751L12.0133 18.5311L14.0645 16.9784C14.0645 16.9784 12.2927 15.6408 10.2571 14.1016L6.45703 16.9784Z" fill="#FCA326"/>
<path d="M4.2866 9.57475C3.20262 8.76362 1.95292 8.20194 0.626731 7.92969L0.59869 8.00031C0.206936 9.02394 0.158376 10.1471 0.460323 11.2007C0.76227 12.2544 1.39837 13.1814 2.27284 13.8422L2.28323 13.8494L2.30712 13.8681L6.45407 16.9724L10.2697 14.0956L4.2866 9.57475Z" fill="#FC6D26"/>
</g>
<defs>
<clipPath id="clip0_25653_961">
<rect width="20" height="20" fill="white" transform="translate(0.264648 0.015625)"/>
</clipPath>
</defs>
</svg>
