<svg width="21" height="21" viewBox="0 0 21 21" fill="none" xmlns="http://www.w3.org/2000/svg">
<g clip-path="url(#clip0_25653_946)">
<path fill-rule="evenodd" clip-rule="evenodd" d="M11.5882 8.79328C11.3527 8.85917 11.1138 8.92599 10.8373 9.00116C10.7022 9.03938 10.6715 9.04806 10.5458 8.89527C10.395 8.71526 10.2844 8.59878 10.0733 8.4929C9.44008 8.16465 8.82692 8.25994 8.25397 8.65173C7.57045 9.11763 7.21863 9.8059 7.22869 10.6636C7.23874 11.5107 7.79159 12.2095 8.58568 12.326C9.2692 12.4213 9.84216 12.1672 10.2945 11.6272C10.3849 11.5107 10.4654 11.3835 10.5659 11.2354H8.62589C8.4148 11.2354 8.36454 11.0977 8.4349 10.9177C8.56558 10.5895 8.80682 10.0389 8.94754 9.76355C8.9777 9.70001 9.04806 9.59413 9.19884 9.59413H12.4336C12.5788 9.10913 12.8146 8.65085 13.1291 8.21723C13.8629 7.20071 14.7474 6.67128 15.9436 6.44891C16.9689 6.25832 17.9339 6.3642 18.8084 6.98894C19.6025 7.56073 20.095 8.33371 20.2257 9.35023C20.3965 10.7797 20.0045 11.9445 19.0697 12.9398C18.4063 13.6493 17.5921 14.094 16.6573 14.2952C16.479 14.33 16.3006 14.3465 16.1252 14.3627C16.0336 14.3712 15.9428 14.3796 15.8531 14.3905C14.9384 14.3693 14.1041 14.094 13.4005 13.4587C12.9057 13.0081 12.5648 12.4543 12.3954 11.8097C12.2778 12.0598 12.1372 12.2993 11.9731 12.5272C11.2494 13.5331 10.3045 14.1579 9.10837 14.3273C8.1233 14.4649 7.20858 14.2638 6.40444 13.6284C5.66061 13.0355 5.23843 12.2519 5.12786 11.2777C4.99719 10.1236 5.31884 9.08587 5.98226 8.17523C6.69594 7.19048 7.64081 6.56574 8.79677 6.34338C9.74164 6.16337 10.6463 6.27985 11.4605 6.86223C11.9932 7.23284 12.3752 7.7411 12.6265 8.35524C12.6868 8.45054 12.6466 8.50348 12.526 8.53525C12.1737 8.6295 11.8836 8.71066 11.5882 8.79328ZM18.2385 9.99937C18.2404 10.0349 18.2425 10.0724 18.2455 10.1126C18.1952 11.0233 17.763 11.7009 16.9689 12.1351C16.4361 12.421 15.8833 12.4527 15.3304 12.1986C14.6067 11.8598 14.2247 11.0233 14.4057 10.1973C14.6268 9.20199 15.2299 8.57725 16.1647 8.35489C17.1197 8.12193 18.0344 8.7149 18.2153 9.76319C18.2295 9.83816 18.2337 9.91313 18.2385 9.99937Z" fill="#00ACD7"/>
<path d="M1.79253 8.67295C1.77242 8.70471 1.78248 8.72589 1.82268 8.72589L4.81627 8.73648C4.84643 8.73648 4.89669 8.70471 4.91679 8.67295L5.08767 8.39764C5.10778 8.36587 5.09772 8.33411 5.05752 8.33411H2.11418C2.07398 8.33411 2.02372 8.35528 2.00362 8.38705L1.79253 8.67295Z" fill="#00ACD7"/>
<path d="M0.2747 9.64706C0.254597 9.67883 0.264648 9.70001 0.304856 9.70001L4.4142 9.68942C4.4544 9.68942 4.49461 9.66824 4.50466 9.62589L4.58508 9.37176C4.59513 9.33999 4.57503 9.30822 4.53482 9.30822H0.596358C0.556151 9.30822 0.505892 9.3294 0.485788 9.36117L0.2747 9.64706Z" fill="#00ACD7"/>
<path d="M2.70723 10.6107C2.68712 10.6424 2.69718 10.6742 2.73738 10.6742L4.28351 10.6848C4.31367 10.6848 4.35388 10.653 4.35388 10.6107L4.37398 10.3565C4.37398 10.3142 4.35388 10.2824 4.31367 10.2824H2.94847C2.90826 10.2824 2.86806 10.3142 2.84795 10.346L2.70723 10.6107Z" fill="#00ACD7"/>
</g>
<defs>
<clipPath id="clip0_25653_946">
<rect width="20" height="20" fill="white" transform="translate(0.264648 0.015625)"/>
</clipPath>
</defs>
</svg>
