<svg width="21" height="21" viewBox="0 0 21 21" fill="none" xmlns="http://www.w3.org/2000/svg">
<g clip-path="url(#clip0_25653_994)">
<path opacity="0.263538" d="M20.2646 15.3711C20.2646 15.7616 15.7875 16.0782 10.2646 16.0782C4.7418 16.0782 0.264648 15.7616 0.264648 15.3711C0.264648 15.1185 2.17064 14.8851 5.26465 14.7588C8.35866 14.6325 12.1706 14.6325 15.2646 14.7588C18.3587 14.8851 20.2646 15.1185 20.2646 15.3711Z" fill="url(#paint0_linear_25653_994)"/>
<path d="M8.91322 15.6587C8.71962 15.5971 8.71893 15.5699 8.89729 15.0283C9.07541 14.4875 8.99378 13.9853 8.6636 13.5905C8.2146 13.0537 7.99839 12.5956 7.92948 12.0352C7.87031 11.554 7.85156 11.5158 7.65566 11.4782C7.52427 11.453 7.34275 11.503 6.91015 11.6834C6.28076 11.946 6.13085 12.0613 5.98233 12.3969C5.90431 12.5733 5.89494 12.6789 5.93919 12.8829C5.99323 13.132 6.21469 13.5329 6.29853 13.5335C6.32041 13.5336 6.44128 13.6164 6.56713 13.7174C6.77597 13.8851 6.7903 13.9142 6.73121 14.0509C6.60281 14.3479 6.29774 14.7079 6.17453 14.7079C6.10539 14.7079 5.82308 14.5102 5.51233 14.2441C4.90194 13.7215 4.87636 13.6691 4.81332 12.8124C4.73809 11.7902 4.98945 11.3132 6.10895 10.3534L6.8111 9.75148L6.85595 9.38635C6.90218 9.00995 6.837 8.11368 6.72742 7.61896C6.66269 7.32668 6.44905 7.04831 6.24631 6.99206C6.02543 6.93078 5.89594 7.05722 5.72791 7.49829C5.5466 7.97417 5.37333 8.14019 5.05795 8.14019C4.86152 8.14019 4.67821 8.01453 4.55163 7.79311C4.46093 7.63445 4.40828 6.6813 4.4625 6.17957C4.48858 5.93822 4.49008 5.69386 4.46583 5.63655C4.42636 5.54329 4.08651 5.34155 3.28529 4.93578C3.13964 4.86201 2.96983 4.76269 2.90795 4.71506C2.84607 4.66744 2.68548 4.57987 2.5511 4.52048C2.24671 4.38594 1.45304 3.92188 1.52734 3.92188C1.66791 3.92188 2.26361 4.10522 2.58073 4.24609C2.77432 4.33208 2.95964 4.40244 2.99254 4.40244C3.02544 4.40244 3.39866 4.52258 3.82192 4.66942C4.24518 4.81626 4.63203 4.93641 4.6816 4.93641C4.79932 4.93641 4.81778 4.83456 4.78005 4.3932C4.76292 4.19271 4.76368 4.02867 4.78174 4.02867C4.7998 4.02867 4.8778 4.06738 4.95506 4.11469C5.19113 4.25922 5.6989 4.34775 6.29572 4.34841C6.86639 4.34909 7.61127 4.46227 7.89596 4.59165C8.30436 4.77724 8.77809 5.35692 9.37904 6.40641C9.79683 7.13604 10.2457 7.44499 10.8891 7.44567C11.1492 7.44597 11.843 7.33874 12.7827 7.15311C13.5575 7.00006 14.5803 6.96566 14.9773 7.0793C15.4616 7.21794 16.102 7.58857 16.6315 8.03667C17.1271 8.45608 17.2034 8.54919 17.5078 9.10574C17.8711 9.76993 18.2721 10.7139 18.6287 11.7444C18.6795 11.8913 18.7868 12.1383 18.8672 12.2933C19.0816 12.707 19.0709 12.7323 18.6813 12.7323C18.2584 12.7323 18.0601 12.6656 17.7829 12.4302C17.517 12.2044 17.4476 12.0663 17.0315 10.9357C16.8183 10.3566 16.6108 10.0091 16.4782 10.0091C16.3873 10.0091 16.2034 10.6297 16.2034 10.9363C16.2034 11.154 16.3399 11.4482 16.6927 11.9911C17.2659 12.8729 17.5674 14.1195 17.4467 15.1084L17.3945 15.5356L17.0126 15.5515C16.4112 15.5765 16.4172 15.5849 16.4172 14.7249C16.4172 13.8094 16.3548 13.6112 15.9508 13.242C15.783 13.0886 15.4065 12.6529 15.1142 12.2737C14.8218 11.8945 14.5419 11.5843 14.492 11.5843C14.3775 11.5843 14.3204 11.8961 14.3143 12.5546C14.3103 12.9883 14.2932 13.0618 14.1653 13.1954C13.8184 13.5577 13.5749 14.2174 13.4248 15.2017C13.3915 15.4195 13.3631 15.4603 13.2218 15.492C13.0142 15.5386 12.4388 15.5462 12.3892 15.503C12.3465 15.4658 12.4214 14.8742 12.5914 13.907C12.6559 13.5399 12.7263 13.0473 12.7479 12.8124C12.7863 12.3941 12.7005 11.6105 12.599 11.452C12.5568 11.3861 12.3419 11.3718 11.3368 11.3681C10.6706 11.3656 9.93999 11.3437 9.71322 11.3194L9.3009 11.2751V11.4581C9.3009 11.654 9.35112 11.8267 9.68696 12.7857C9.80524 13.1234 9.97664 13.6383 10.0678 13.9298L10.2337 14.4599L10.0937 14.891C10.0168 15.128 9.90255 15.4121 9.8399 15.5222C9.72941 15.7165 9.71645 15.7223 9.40655 15.7183C9.23085 15.7159 9.00886 15.6891 8.91322 15.6587H8.91322Z" fill="#499848"/>
</g>
<defs>
<linearGradient id="paint0_linear_25653_994" x1="15.0078" y1="14.7221" x2="14.8106" y2="16.6749" gradientUnits="userSpaceOnUse">
<stop stop-color="#959595"/>
<stop offset="1" stop-color="#CCCCCC"/>
</linearGradient>
<clipPath id="clip0_25653_994">
<rect width="20" height="20" fill="white" transform="translate(0.264648 0.015625)"/>
</clipPath>
</defs>
</svg>
