<svg width="21" height="21" viewBox="0 0 21 21" fill="none" xmlns="http://www.w3.org/2000/svg">
<path d="M19.4293 0.015625H9.79834C9.79834 1.16867 10.2564 2.27449 11.0717 3.08982C11.887 3.90515 12.9929 4.3632 14.1459 4.3632H15.92V6.07616C15.9216 8.47507 17.8659 10.4194 20.2648 10.421V0.851112C20.2648 0.389816 19.8908 0.015625 19.4293 0.015625Z" fill="#2684FF"/>
<path d="M14.6636 4.8125H5.03271C5.0342 7.21141 6.97848 9.15575 9.37747 9.15732H11.1516V10.8758C11.1547 13.2747 13.1003 15.2177 15.4992 15.2177V5.64814C15.4992 5.18669 15.1251 4.81258 14.6636 4.81258V4.8125Z" fill="url(#paint0_linear_25653_970)"/>
<path d="M9.89561 9.60938H0.264648C0.264648 12.0105 2.21119 13.9569 4.61222 13.9569H6.39191V15.6698C6.39348 18.0666 8.33438 20.01 10.7312 20.0146V10.4449C10.7312 9.98349 10.3571 9.60938 9.89561 9.60938Z" fill="url(#paint1_linear_25653_970)"/>
<defs>
<linearGradient id="paint0_linear_25653_970" x1="15.2931" y1="4.82925" x2="11.2211" y2="9.07817" gradientUnits="userSpaceOnUse">
<stop offset="0.18" stop-color="#0052CC"/>
<stop offset="1" stop-color="#2684FF"/>
</linearGradient>
<linearGradient id="paint1_linear_25653_970" x1="10.8008" y1="9.65672" x2="6.09054" y2="14.291" gradientUnits="userSpaceOnUse">
<stop offset="0.18" stop-color="#0052CC"/>
<stop offset="1" stop-color="#2684FF"/>
</linearGradient>
</defs>
</svg>
