<svg width="21" height="21" viewBox="0 0 21 21" fill="none" xmlns="http://www.w3.org/2000/svg">
<g clip-path="url(#clip0_25653_1015)">
<path fill-rule="evenodd" clip-rule="evenodd" d="M0.264648 0.015625H20.2646V20.0156H0.264648V0.015625Z" fill="#F7DF1E"/>
<path fill-rule="evenodd" clip-rule="evenodd" d="M5.52347 16.7268L7.05401 15.8006C7.34928 16.3241 7.61788 16.7671 8.26217 16.7671C8.87975 16.7671 9.26912 16.5255 9.26912 15.5858V9.19531H11.1486V15.6124C11.1486 17.559 10.0075 18.4451 8.34274 18.4451C6.83922 18.4451 5.96645 17.6664 5.52344 16.7267" fill="black"/>
<path fill-rule="evenodd" clip-rule="evenodd" d="M12.1694 16.5313L13.6998 15.6453C14.1026 16.3032 14.6262 16.7864 15.5525 16.7864C16.3313 16.7864 16.8279 16.3971 16.8279 15.8601C16.8279 15.2157 16.3178 14.9874 15.4585 14.6116L14.9888 14.4101C13.6327 13.8329 12.7332 13.108 12.7332 11.5775C12.7332 10.1678 13.8072 9.09375 15.4854 9.09375C16.6803 9.09375 17.5395 9.50997 18.157 10.5974L16.6936 11.5371C16.3714 10.9599 16.0225 10.7317 15.4855 10.7317C14.935 10.7317 14.5859 11.0808 14.5859 11.5371C14.5859 12.101 14.935 12.3293 15.7405 12.6784L16.2103 12.8798C17.8079 13.5645 18.7074 14.2625 18.7074 15.8332C18.7074 17.5249 17.3784 18.4511 15.5928 18.4511C13.8476 18.4511 12.7198 17.6188 12.1695 16.5313" fill="black"/>
</g>
<defs>
<clipPath id="clip0_25653_1015">
<rect width="20" height="20" fill="white" transform="translate(0.264648 0.015625)"/>
</clipPath>
</defs>
</svg>
