<svg width="26" height="26" viewBox="0 0 26 26" fill="none" xmlns="http://www.w3.org/2000/svg">
<g clip-path="url(#clip0_25684_2941)">
<path d="M23.4141 0.875H2.11035C1.08984 0.875 0.264648 1.68066 0.264648 2.67676V24.0684C0.264648 25.0645 1.08984 25.875 2.11035 25.875H23.4141C24.4346 25.875 25.2646 25.0645 25.2646 24.0732V2.67676C25.2646 1.68066 24.4346 0.875 23.4141 0.875ZM7.68164 22.1787H3.9707V10.2451H7.68164V22.1787ZM5.82617 8.61914C4.63477 8.61914 3.67285 7.65723 3.67285 6.4707C3.67285 5.28418 4.63477 4.32227 5.82617 4.32227C7.0127 4.32227 7.97461 5.28418 7.97461 6.4707C7.97461 7.65234 7.0127 8.61914 5.82617 8.61914ZM21.5684 22.1787H17.8623V16.3779C17.8623 14.9961 17.8379 13.2139 15.9336 13.2139C14.0049 13.2139 13.7119 14.7227 13.7119 16.2803V22.1787H10.0107V10.2451H13.5654V11.876H13.6143C14.1074 10.9385 15.3184 9.94727 17.1201 9.94727C20.875 9.94727 21.5684 12.418 21.5684 15.6309V22.1787V22.1787Z" fill="white"/>
</g>
<defs>
<clipPath id="clip0_25684_2941">
<rect width="25" height="25" fill="white" transform="translate(0.264648 0.875)"/>
</clipPath>
</defs>
</svg>
