<svg width="26" height="26" viewBox="0 0 26 26" fill="none" xmlns="http://www.w3.org/2000/svg">
<g clip-path="url(#clip0_25684_2944)">
<path d="M18.6941 12.462C18.5864 12.4104 18.477 12.3607 18.3662 12.3132C18.1733 8.75758 16.2304 6.722 12.9682 6.70117C12.9534 6.70108 12.9387 6.70108 12.9239 6.70108C10.9727 6.70108 9.34985 7.53397 8.35101 9.04957L10.1451 10.2803C10.8913 9.14822 12.0624 8.90687 12.9248 8.90687C12.9347 8.90687 12.9447 8.90687 12.9546 8.90697C14.0287 8.91381 14.8393 9.22612 15.3639 9.83516C15.7457 10.2786 16.001 10.8913 16.1274 11.6646C15.1751 11.5027 14.1451 11.4529 13.0441 11.5161C9.94251 11.6947 7.94855 13.5036 8.08247 16.0172C8.15042 17.2922 8.78561 18.3891 9.87093 19.1056C10.7886 19.7113 11.9704 20.0076 13.1987 19.9405C14.8208 19.8516 16.0933 19.2327 16.9811 18.101C17.6553 17.2417 18.0817 16.128 18.27 14.7247C19.0431 15.1913 19.616 15.8052 19.9324 16.5432C20.4704 17.7978 20.5018 19.8594 18.8196 21.5401C17.3458 23.0125 15.5742 23.6495 12.8968 23.6691C9.92682 23.6471 7.68067 22.6947 6.22029 20.8382C4.85277 19.0997 4.14602 16.5888 4.11965 13.375C4.14602 10.1612 4.85277 7.65021 6.22029 5.91181C7.68067 4.05533 9.92678 3.10286 12.8967 3.08079C15.8882 3.10303 18.1735 4.06008 19.6898 5.92552C20.4333 6.84031 20.9938 7.99073 21.3634 9.33207L23.4659 8.77112C23.0179 7.12008 22.3131 5.69736 21.354 4.51745C19.4101 2.12587 16.5672 0.90041 12.9041 0.875H12.8894C9.23377 0.900322 6.42264 2.13044 4.53412 4.53116C2.8536 6.6675 1.98674 9.64007 1.95761 13.3662L1.95752 13.375L1.95761 13.3838C1.98674 17.1099 2.8536 20.0826 4.53412 22.2189C6.42264 24.6195 9.23377 25.8497 12.8894 25.875H12.9041C16.1541 25.8525 18.445 25.0016 20.3323 23.116C22.8014 20.6492 22.727 17.5572 21.9132 15.659C21.3294 14.2978 20.2162 13.1922 18.6941 12.462ZM13.0826 17.7379C11.7232 17.8145 10.311 17.2043 10.2413 15.8974C10.1897 14.9284 10.9309 13.8471 13.166 13.7183C13.422 13.7036 13.6731 13.6964 13.9199 13.6964C14.7317 13.6964 15.4912 13.7752 16.1817 13.9262C15.9242 17.1426 14.4135 17.6648 13.0826 17.7379Z" fill="white"/>
</g>
<defs>
<clipPath id="clip0_25684_2944">
<rect width="25" height="25" fill="white" transform="translate(0.264648 0.875)"/>
</clipPath>
</defs>
</svg>
