<svg width="21" height="21" viewBox="0 0 21 21" fill="none" xmlns="http://www.w3.org/2000/svg">
<g clip-path="url(#clip0_25653_955)">
<path d="M1.57776 15.0194C1.66855 15.1808 1.7997 15.3019 1.96111 15.3927L9.72908 19.8719C10.0519 20.0635 10.4453 20.0635 10.7581 19.8719L18.5261 15.3927C18.8489 15.2111 19.0406 14.8681 19.0406 14.4948V5.53643C19.0406 5.16317 18.8489 4.82016 18.5261 4.63858L10.7581 0.159383C10.4353 -0.0322943 10.0418 -0.0322943 9.72908 0.159383L1.96111 4.63858C1.6282 4.82016 1.43652 5.16317 1.43652 5.53643V14.5049C1.43652 14.6865 1.47688 14.858 1.57776 15.0194Z" fill="#009639"/>
<path d="M7.75187 13.4379C7.75187 13.9927 7.30799 14.4366 6.75313 14.4366C6.19828 14.4366 5.75439 13.9927 5.75439 13.4379V6.58794C5.75439 6.05326 6.22854 5.61946 6.88428 5.61946C7.35843 5.61946 7.91328 5.81114 8.2462 6.22476L8.54885 6.58794L12.7254 11.5816V6.60811C12.7254 6.05326 13.1693 5.60938 13.7241 5.60938C14.279 5.60938 14.7229 6.05326 14.7229 6.60811V13.4581C14.7229 13.9927 14.2487 14.4265 13.593 14.4265C13.1188 14.4265 12.564 14.2348 12.2311 13.8212L7.75187 8.47444V13.4379Z" fill="white"/>
</g>
<defs>
<clipPath id="clip0_25653_955">
<rect width="20" height="20" fill="white" transform="translate(0.264648 0.015625)"/>
</clipPath>
</defs>
</svg>
