<svg width="21" height="21" viewBox="0 0 21 21" fill="none" xmlns="http://www.w3.org/2000/svg">
<g clip-path="url(#clip0_25653_997)">
<path fill-rule="evenodd" clip-rule="evenodd" d="M10.1562 16.1318C10.0884 16.1318 10.0251 16.1137 9.96633 16.0821L9.36506 15.725C9.27465 15.6752 9.31985 15.6571 9.34698 15.6481C9.46904 15.6074 9.49164 15.5984 9.61823 15.526C9.63179 15.517 9.64987 15.5215 9.66343 15.5306L10.1246 15.8063C10.1426 15.8154 10.1652 15.8154 10.1788 15.8063L11.9826 14.762C12.0007 14.753 12.0097 14.7349 12.0097 14.7123V12.6282C12.0097 12.6056 12.0007 12.5875 11.9826 12.5785L10.1788 11.5387C10.1607 11.5297 10.1381 11.5297 10.1246 11.5387L8.32076 12.5785C8.30267 12.5875 8.29363 12.6101 8.29363 12.6282V14.7123C8.29363 14.7304 8.30267 14.753 8.32076 14.762L8.81352 15.0468C9.08025 15.1825 9.24752 15.0242 9.24752 14.866V12.809C9.24752 12.7819 9.27012 12.7548 9.30177 12.7548H9.53233C9.55946 12.7548 9.58658 12.7774 9.58658 12.809V14.866C9.58658 15.2231 9.39219 15.4311 9.05313 15.4311C8.94915 15.4311 8.86777 15.4311 8.63721 15.3181L8.16253 15.0468C8.04499 14.979 7.97266 14.8524 7.97266 14.7168V12.6327C7.97266 12.4971 8.04499 12.3705 8.16253 12.3027L9.96633 11.2584C10.0793 11.1951 10.2331 11.1951 10.3461 11.2584L12.1499 12.3027C12.2674 12.3705 12.3397 12.4971 12.3397 12.6327V14.7168C12.3397 14.8524 12.2674 14.979 12.1499 15.0468L10.3461 16.0911C10.2873 16.1183 10.2195 16.1318 10.1562 16.1318ZM10.7123 14.6987C9.92112 14.6987 9.75837 14.3371 9.75837 14.0297C9.75837 14.0025 9.78097 13.9754 9.81262 13.9754H10.0477C10.0748 13.9754 10.0974 13.9935 10.0974 14.0206C10.1336 14.2602 10.2376 14.3778 10.7168 14.3778C11.0965 14.3778 11.2593 14.2919 11.2593 14.0884C11.2593 13.9709 11.2141 13.885 10.6218 13.8262C10.1291 13.7765 9.82166 13.668 9.82166 13.2747C9.82166 12.9085 10.1291 12.6915 10.6444 12.6915C11.2231 12.6915 11.5079 12.8904 11.5441 13.3244C11.5441 13.338 11.5396 13.3515 11.5305 13.3651C11.5215 13.3741 11.5079 13.3832 11.4944 13.3832H11.2593C11.2367 13.3832 11.2141 13.3651 11.2095 13.3425C11.1553 13.0938 11.0152 13.0125 10.6444 13.0125C10.2285 13.0125 10.1788 13.1571 10.1788 13.2656C10.1788 13.3967 10.2376 13.4374 10.7982 13.5098C11.3542 13.5821 11.6164 13.6861 11.6164 14.0749C11.6119 14.4727 11.2864 14.6987 10.7123 14.6987Z" fill="#539E43"/>
<path fill-rule="evenodd" clip-rule="evenodd" d="M4.55941 7.98207C4.55941 7.9007 4.5142 7.82384 4.44186 7.78316L2.52505 6.68008C2.4934 6.662 2.45723 6.65296 2.42107 6.64844H2.40299C2.36682 6.64844 2.33065 6.662 2.29901 6.68008L0.382189 7.78316C0.309856 7.82384 0.264648 7.9007 0.264648 7.98207L0.269169 10.9477C0.269169 10.9884 0.291773 11.0291 0.32794 11.0472C0.364106 11.0698 0.409314 11.0698 0.440959 11.0472L1.5802 10.3962C1.65253 10.3555 1.69774 10.2786 1.69774 10.1973V8.80938C1.69774 8.728 1.74295 8.65115 1.81528 8.61046L2.29901 8.33017C2.33517 8.30757 2.37586 8.29853 2.41655 8.29853C2.45723 8.29853 2.49792 8.30757 2.52957 8.33017L3.01329 8.61046C3.08563 8.65115 3.13083 8.728 3.13083 8.80938V10.1973C3.13083 10.2786 3.17604 10.3555 3.24837 10.3962L4.38762 11.0472C4.42378 11.0698 4.46899 11.0698 4.50516 11.0472C4.54132 11.0291 4.56393 10.9884 4.56393 10.9477L4.55941 7.98207Z" fill="#333333"/>
<path fill-rule="evenodd" clip-rule="evenodd" d="M13.7728 3.89637C13.7367 3.87829 13.6915 3.87829 13.6598 3.89637C13.6237 3.91898 13.601 3.95515 13.601 3.99583V6.93435C13.601 6.96147 13.5875 6.9886 13.5604 7.00668C13.5332 7.02025 13.5061 7.02025 13.479 7.00668L12.9998 6.73091C12.9274 6.69023 12.8416 6.69023 12.7692 6.73091L10.8524 7.83851C10.7801 7.8792 10.7349 7.95605 10.7349 8.03742V10.2481C10.7349 10.3295 10.7801 10.4063 10.8524 10.447L12.7692 11.5546C12.8416 11.5953 12.9274 11.5953 12.9998 11.5546L14.9166 10.447C14.9889 10.4063 15.0341 10.3295 15.0341 10.2481V4.73724C15.0341 4.65135 14.9889 4.57449 14.9166 4.53381L13.7728 3.89637ZM13.5965 9.52024C13.5965 9.54285 13.5875 9.56093 13.5694 9.56997L12.9139 9.94972C12.8958 9.95876 12.8732 9.95876 12.8551 9.94972L12.1996 9.56997C12.1815 9.56093 12.1725 9.53833 12.1725 9.52024V8.76075C12.1725 8.73815 12.1815 8.72006 12.1996 8.71102L12.8551 8.33127C12.8732 8.32223 12.8958 8.32223 12.9139 8.33127L13.5694 8.71102C13.5875 8.72006 13.5965 8.74267 13.5965 8.76075V9.52024Z" fill="#333333"/>
<path fill-rule="evenodd" clip-rule="evenodd" d="M20.1516 8.74127C20.2239 8.70058 20.2646 8.62373 20.2646 8.54235V8.00438C20.2646 7.92301 20.2194 7.84615 20.1516 7.80546L18.2483 6.70239C18.176 6.6617 18.0901 6.6617 18.0178 6.70239L16.1009 7.80999C16.0286 7.85067 15.9834 7.92753 15.9834 8.0089V10.2196C15.9834 10.3009 16.0286 10.3778 16.1009 10.4185L18.0042 11.5035C18.0765 11.5442 18.1624 11.5442 18.2302 11.5035L19.383 10.8615C19.4192 10.8434 19.4418 10.8028 19.4418 10.7621C19.4418 10.7214 19.4192 10.6807 19.383 10.6626L17.4572 9.55501C17.421 9.53241 17.3984 9.49624 17.3984 9.45556V8.76387C17.3984 8.72319 17.421 8.6825 17.4572 8.66442L18.0584 8.32084C18.0946 8.29823 18.1398 8.29823 18.176 8.32084L18.7773 8.66442C18.8134 8.68702 18.836 8.72319 18.836 8.76387V9.30637C18.836 9.34706 18.8586 9.38774 18.8948 9.40583C18.931 9.42843 18.9762 9.42843 19.0123 9.40583L20.1516 8.74127Z" fill="#333333"/>
<path fill-rule="evenodd" clip-rule="evenodd" d="M18.1036 8.63959C18.1172 8.63055 18.1353 8.63055 18.1488 8.63959L18.515 8.85207C18.5286 8.86111 18.5376 8.87468 18.5376 8.89276V9.31771C18.5376 9.3358 18.5286 9.34936 18.515 9.3584L18.1488 9.57088C18.1353 9.57992 18.1172 9.57992 18.1036 9.57088L17.7374 9.3584C17.7239 9.34936 17.7148 9.3358 17.7148 9.31771V8.89276C17.7148 8.87468 17.7239 8.86111 17.7374 8.85207L18.1036 8.63959Z" fill="#539E43"/>
<path fill-rule="evenodd" clip-rule="evenodd" d="M7.76441 6.7102C7.69208 6.66952 7.60619 6.66952 7.53385 6.7102L5.6306 7.80876C5.55827 7.84944 5.51758 7.9263 5.51758 8.00767V10.2093C5.51758 10.2907 5.56279 10.3675 5.6306 10.4082L7.53385 11.5068C7.60619 11.5475 7.69208 11.5475 7.76441 11.5068L9.66767 10.4082C9.74 10.3675 9.78069 10.2907 9.78069 10.2093V8.00767C9.78069 7.9263 9.73548 7.84944 9.66767 7.80876L7.76441 6.7102Z" fill="white"/>
<path fill-rule="evenodd" clip-rule="evenodd" d="M7.76441 6.7102C7.69208 6.66952 7.60619 6.66952 7.53385 6.7102L5.6306 7.80876C5.55827 7.84944 5.51758 7.9263 5.51758 8.00767V10.2093C5.51758 10.2907 5.56279 10.3675 5.6306 10.4082L7.53385 11.5068C7.60619 11.5475 7.69208 11.5475 7.76441 11.5068L9.66767 10.4082C9.74 10.3675 9.78069 10.2907 9.78069 10.2093V8.00767C9.78069 7.9263 9.73548 7.84944 9.66767 7.80876L7.76441 6.7102Z" fill="url(#paint0_linear_25653_997)"/>
<mask id="mask0_25653_997" style="mask-type:luminance" maskUnits="userSpaceOnUse" x="5" y="6" width="5" height="6">
<path fill-rule="evenodd" clip-rule="evenodd" d="M7.76441 6.7102C7.69208 6.66952 7.60619 6.66952 7.53385 6.7102L5.6306 7.80876C5.55827 7.84944 5.51758 7.9263 5.51758 8.00767V10.2093C5.51758 10.2907 5.56279 10.3675 5.6306 10.4082L7.53385 11.5068C7.60619 11.5475 7.69208 11.5475 7.76441 11.5068L9.66767 10.4082C9.74 10.3675 9.78069 10.2907 9.78069 10.2093V8.00767C9.78069 7.9263 9.73548 7.84944 9.66767 7.80876L7.76441 6.7102Z" fill="white"/>
</mask>
<g mask="url(#mask0_25653_997)">
<path fill-rule="evenodd" clip-rule="evenodd" d="M9.67203 7.80866L7.75973 6.7101C7.74165 6.70106 7.71905 6.69202 7.70096 6.6875L5.55811 10.3584C5.57619 10.381 5.59879 10.3991 5.6214 10.4126L7.53369 11.5112C7.58794 11.5428 7.65123 11.5519 7.71 11.5338L9.72176 7.85387C9.7082 7.83578 9.69011 7.82222 9.67203 7.80866Z" fill="url(#paint1_linear_25653_997)"/>
</g>
<mask id="mask1_25653_997" style="mask-type:luminance" maskUnits="userSpaceOnUse" x="5" y="6" width="5" height="6">
<path fill-rule="evenodd" clip-rule="evenodd" d="M7.76441 6.7102C7.69208 6.66952 7.60619 6.66952 7.53385 6.7102L5.6306 7.80876C5.55827 7.84944 5.51758 7.9263 5.51758 8.00767V10.2093C5.51758 10.2907 5.56279 10.3675 5.6306 10.4082L7.53385 11.5068C7.60619 11.5475 7.69208 11.5475 7.76441 11.5068L9.66767 10.4082C9.74 10.3675 9.78069 10.2907 9.78069 10.2093V8.00767C9.78069 7.9263 9.73548 7.84944 9.66767 7.80876L7.76441 6.7102Z" fill="white"/>
</mask>
<g mask="url(#mask1_25653_997)">
<path fill-rule="evenodd" clip-rule="evenodd" d="M9.67697 10.4089C9.73122 10.3773 9.77191 10.323 9.78999 10.2643L7.69234 6.6838C7.63809 6.67476 7.57932 6.67928 7.52959 6.71093L5.63086 7.80496L7.67878 11.5391C7.7059 11.5346 7.73755 11.5256 7.76468 11.512L9.67697 10.4089Z" fill="url(#paint2_linear_25653_997)"/>
<path fill-rule="evenodd" clip-rule="evenodd" d="M9.67678 10.407L7.769 11.5056C7.74188 11.5191 7.71475 11.5282 7.68311 11.5327L7.71927 11.6005L9.835 10.3754V10.3482L9.78075 10.2578C9.77171 10.3211 9.73103 10.3754 9.67678 10.407Z" fill="url(#paint3_linear_25653_997)"/>
<path fill-rule="evenodd" clip-rule="evenodd" d="M9.67678 10.407L7.769 11.5056C7.74188 11.5191 7.71475 11.5282 7.68311 11.5327L7.71927 11.6005L9.835 10.3754V10.3482L9.78075 10.2578C9.77171 10.3211 9.73103 10.3754 9.67678 10.407Z" fill="url(#paint4_linear_25653_997)"/>
</g>
</g>
<defs>
<linearGradient id="paint0_linear_25653_997" x1="7.23806" y1="6.91164" x2="5.21214" y2="9.36338" gradientUnits="userSpaceOnUse">
<stop stop-color="#41873F"/>
<stop offset="0.3288" stop-color="#418B3D"/>
<stop offset="0.6352" stop-color="#419637"/>
<stop offset="0.9319" stop-color="#3FA92D"/>
<stop offset="1" stop-color="#3FAE2A"/>
</linearGradient>
<linearGradient id="paint1_linear_25653_997" x1="8.48476" y1="12.1152" x2="13.5525" y2="10.0907" gradientUnits="userSpaceOnUse">
<stop offset="0.1376" stop-color="#41873F"/>
<stop offset="0.4032" stop-color="#54A044"/>
<stop offset="0.7136" stop-color="#66B848"/>
<stop offset="0.9081" stop-color="#6CC04A"/>
</linearGradient>
<linearGradient id="paint2_linear_25653_997" x1="5.44832" y1="11.6821" x2="9.85235" y2="11.6821" gradientUnits="userSpaceOnUse">
<stop offset="0.0919165" stop-color="#6CC04A"/>
<stop offset="0.2864" stop-color="#66B848"/>
<stop offset="0.5968" stop-color="#54A044"/>
<stop offset="0.8624" stop-color="#41873F"/>
</linearGradient>
<linearGradient id="paint3_linear_25653_997" x1="5.44813" y1="12.3068" x2="9.85215" y2="12.3068" gradientUnits="userSpaceOnUse">
<stop offset="0.0919165" stop-color="#6CC04A"/>
<stop offset="0.2864" stop-color="#66B848"/>
<stop offset="0.5968" stop-color="#54A044"/>
<stop offset="0.8624" stop-color="#41873F"/>
</linearGradient>
<linearGradient id="paint4_linear_25653_997" x1="4.99423" y1="7.09394" x2="4.57902" y2="12.6825" gradientUnits="userSpaceOnUse">
<stop stop-color="#41873F"/>
<stop offset="0.3288" stop-color="#418B3D"/>
<stop offset="0.6352" stop-color="#419637"/>
<stop offset="0.9319" stop-color="#3FA92D"/>
<stop offset="1" stop-color="#3FAE2A"/>
</linearGradient>
<clipPath id="clip0_25653_997">
<rect width="20" height="20" fill="white" transform="translate(0.264648 0.015625)"/>
</clipPath>
</defs>
</svg>
