<svg width="21" height="21" viewBox="0 0 21 21" fill="none" xmlns="http://www.w3.org/2000/svg">
<g clip-path="url(#clip0_25653_967)">
<path d="M10.2646 20.0156C15.7875 20.0156 20.2646 15.5385 20.2646 10.0156C20.2646 4.49279 15.7875 0.015625 10.2646 0.015625C4.74182 0.015625 0.264648 4.49279 0.264648 10.0156C0.264648 15.5385 4.74182 20.0156 10.2646 20.0156Z" fill="white"/>
<path fill-rule="evenodd" clip-rule="evenodd" d="M12.1229 3.79413L5.18549 4.30462C4.62611 4.35304 4.43115 4.71771 4.43115 5.15487V12.7371C4.43115 13.0778 4.55265 13.369 4.8449 13.7581L6.47569 15.8724C6.74357 16.2129 6.98699 16.2857 7.49849 16.2613L15.5549 15.7752C16.2362 15.7268 16.4312 15.4107 16.4312 14.876V6.34583C16.4312 6.06946 16.3217 5.98962 15.9992 5.75429C15.9814 5.74137 15.963 5.72796 15.9439 5.714L13.7294 4.1587C13.194 3.77002 12.9748 3.72112 12.1229 3.79413ZM7.68115 6.20592C7.0234 6.25029 6.87394 6.26037 6.5004 5.95712L5.55053 5.20379C5.45365 5.10637 5.50224 4.98487 5.74549 4.96075L12.415 4.47467C12.9747 4.42596 13.2667 4.62071 13.4859 4.79071L14.6299 5.61708C14.6786 5.64129 14.8001 5.78692 14.6539 5.78692L7.76607 6.20021L7.68115 6.20592ZM6.91394 14.803V7.56117C6.91394 7.24529 7.01132 7.09938 7.30324 7.07483L15.2137 6.61325C15.4821 6.58896 15.6036 6.75921 15.6036 7.07483V14.2681C15.6036 14.5843 15.5547 14.852 15.1164 14.876L7.54669 15.3138C7.10861 15.3378 6.91394 15.1922 6.91394 14.803ZM14.3868 7.94962C14.4354 8.16858 14.3868 8.38729 14.1673 8.41192L13.8026 8.48454V13.8309C13.4859 14.001 13.1939 14.0983 12.9506 14.0983C12.561 14.0983 12.4634 13.9766 12.1716 13.6123L9.78586 9.86979V13.4908L10.5408 13.661C10.5408 13.661 10.5408 14.0983 9.93174 14.0983L8.25265 14.1956C8.20386 14.0982 8.25265 13.8554 8.42294 13.8068L8.86111 13.6854V8.89779L8.25274 8.84908C8.20394 8.63017 8.32544 8.3145 8.66649 8.29L10.4678 8.16867L12.9506 11.9599V8.60604L12.3176 8.53346C12.2689 8.26579 12.4634 8.07146 12.7069 8.04733L14.3868 7.94962Z" fill="black"/>
</g>
<defs>
<clipPath id="clip0_25653_967">
<rect width="20" height="20" fill="white" transform="translate(0.264648 0.015625)"/>
</clipPath>
</defs>
</svg>
