<svg width="20" height="21" viewBox="0 0 20 21" fill="none" xmlns="http://www.w3.org/2000/svg">
<g clip-path="url(#clip0_25653_1006)">
<path d="M19.5793 11.2486C20.2579 5.93559 16.5059 1.07829 11.2026 0.399622C5.89932 -0.279044 1.02262 3.47301 0.343958 8.7763C-0.334708 14.0796 3.41734 18.9466 8.72063 19.6349C14.0336 20.3136 18.8909 16.5616 19.5793 11.2486Z" fill="#FF6C37"/>
<path d="M13.4619 6.54647L9.37053 10.6379L8.2168 9.48412C12.2403 5.46061 12.6378 5.80963 13.4619 6.54647Z" fill="white"/>
<path d="M9.37024 10.7352C9.34116 10.7352 9.32177 10.7255 9.30238 10.7061L8.13895 9.55234C8.10017 9.51356 8.10017 9.45539 8.13895 9.41661C12.2303 5.32523 12.6569 5.71303 13.5198 6.48865C13.5392 6.50804 13.5489 6.52743 13.5489 6.55652C13.5489 6.5856 13.5392 6.60499 13.5198 6.62439L9.42841 10.7061C9.41872 10.7255 9.38963 10.7352 9.37024 10.7352ZM8.35224 9.48448L9.37024 10.5025L13.3162 6.55652C12.5988 5.91663 12.114 5.72273 8.35224 9.48448Z" fill="#FF6C37"/>
<path d="M10.5437 11.8079L9.42871 10.6929L13.5201 6.60156C14.6157 7.70682 12.9772 9.50043 10.5437 11.8079Z" fill="white"/>
<path d="M10.5435 11.9081C10.5144 11.9081 10.495 11.8984 10.4757 11.879L9.3607 10.764C9.34131 10.7446 9.34131 10.7252 9.34131 10.6961C9.34131 10.6671 9.351 10.6477 9.37039 10.6283L13.4618 6.5369C13.5006 6.49812 13.5587 6.49812 13.5975 6.5369C13.8496 6.76958 13.9853 7.09922 13.9756 7.43855C13.9562 8.51472 12.7346 9.88175 10.6211 11.879C10.592 11.8984 10.5629 11.9081 10.5435 11.9081ZM9.5643 10.6961C10.1848 11.3263 10.4466 11.5784 10.5435 11.6754C12.1723 10.1241 13.7526 8.53411 13.7623 7.43855C13.772 7.18648 13.6751 6.9344 13.5103 6.7405L9.5643 10.6961Z" fill="#FF6C37"/>
<path d="M8.23585 9.51057L9.05994 10.3347C9.07933 10.3541 9.07933 10.3734 9.05994 10.3928C9.05025 10.4025 9.05025 10.4025 9.04055 10.4025L7.33419 10.7709C7.24694 10.7806 7.16937 10.7225 7.14998 10.6352C7.14029 10.5867 7.15968 10.5383 7.18876 10.5092L8.17768 9.52026C8.19707 9.50087 8.22615 9.49118 8.23585 9.51057Z" fill="white"/>
<path d="M7.3053 10.8697C7.15987 10.8697 7.05322 10.7533 7.05322 10.6079C7.05322 10.54 7.08231 10.4722 7.13078 10.4237L8.1197 9.43479C8.17787 9.38632 8.25543 9.38632 8.3136 9.43479L9.1377 10.2589C9.19587 10.3074 9.19587 10.3946 9.1377 10.4528C9.11831 10.4722 9.09892 10.4819 9.06983 10.4916L7.36347 10.86C7.34408 10.86 7.32469 10.8697 7.3053 10.8697ZM8.20695 9.619L7.25682 10.5691C7.23743 10.5885 7.22774 10.6176 7.24713 10.6467C7.25682 10.6758 7.28591 10.6855 7.31499 10.6758L8.91471 10.3268L8.20695 9.619Z" fill="#FF6C37"/>
<path d="M15.6239 4.27379C15.0034 3.67268 14.0048 3.69207 13.4037 4.32226C12.8026 4.95245 12.822 5.94136 13.4521 6.54247C13.966 7.03692 14.7416 7.12418 15.3524 6.75576L14.2472 5.65051L15.6239 4.27379Z" fill="white"/>
<path d="M14.5377 7.07734C13.6167 7.07734 12.8701 6.33081 12.8701 5.40977C12.8701 4.48872 13.6167 3.74219 14.5377 3.74219C14.9643 3.74219 15.3812 3.90701 15.6914 4.20756C15.7108 4.22695 15.7205 4.24634 15.7205 4.27542C15.7205 4.30451 15.7108 4.3239 15.6914 4.34329L14.3826 5.65215L15.4103 6.67984C15.449 6.71862 15.449 6.77679 15.4103 6.81557C15.4006 6.82527 15.4006 6.82527 15.3909 6.83496C15.1388 6.99009 14.8382 7.07734 14.5377 7.07734ZM14.5377 3.94579C13.7233 3.94579 13.064 4.60506 13.0737 5.41946C13.0737 6.23386 13.733 6.89314 14.5474 6.88344C14.7704 6.88344 14.9934 6.83496 15.197 6.72832L14.179 5.72001C14.1596 5.70062 14.1499 5.68123 14.1499 5.65215C14.1499 5.62306 14.1596 5.60367 14.179 5.58428L15.4781 4.28512C15.2164 4.06213 14.8867 3.94579 14.5377 3.94579Z" fill="#FF6C37"/>
<path d="M15.6529 4.30064L15.6335 4.28125L14.2471 5.64828L15.3426 6.74384C15.4493 6.67597 15.5559 6.59841 15.6432 6.51115C16.2637 5.90035 16.2637 4.91144 15.6529 4.30064Z" fill="white"/>
<path d="M15.3521 6.85557C15.323 6.85557 15.3036 6.84587 15.2842 6.82648L14.179 5.72123C14.1596 5.70184 14.1499 5.68245 14.1499 5.65336C14.1499 5.62428 14.1596 5.60489 14.179 5.58549L15.5557 4.20877C15.5945 4.16999 15.6527 4.16999 15.6914 4.20877L15.7205 4.22816C16.3701 4.87774 16.3701 5.92483 15.7302 6.5841C15.6333 6.68106 15.5266 6.76831 15.4103 6.83618C15.3812 6.84587 15.3618 6.85557 15.3521 6.85557ZM14.3826 5.65336L15.3618 6.63258C15.4394 6.5841 15.5169 6.51624 15.5751 6.45807C16.1277 5.90544 16.1568 5.00378 15.6236 4.42207L14.3826 5.65336Z" fill="#FF6C37"/>
<path d="M13.6265 6.72139C13.3938 6.4887 13.0157 6.4887 12.783 6.72139L9.12793 10.3765L9.73873 10.9873L13.6071 7.59396C13.8592 7.38066 13.8786 7.00255 13.6653 6.75047C13.6459 6.74078 13.6362 6.73108 13.6265 6.72139Z" fill="white"/>
<path d="M9.72924 11.0796C9.70015 11.0796 9.68076 11.0699 9.66137 11.0505L9.05057 10.4397C9.01179 10.401 9.01179 10.3428 9.05057 10.304L12.7057 6.64891C12.9771 6.37745 13.4134 6.37745 13.6849 6.64891C13.9564 6.92038 13.9564 7.35666 13.6849 7.62813C13.6752 7.63783 13.6655 7.64752 13.6558 7.65722L9.78741 11.0505C9.77771 11.0699 9.75832 11.0796 9.72924 11.0796ZM9.26387 10.3719L9.73893 10.8469L13.5395 7.51179C13.7528 7.33727 13.7721 7.01733 13.5976 6.80404C13.4231 6.59074 13.1032 6.57135 12.8899 6.74586C12.8802 6.75556 12.8705 6.76525 12.8511 6.77495L9.26387 10.3719Z" fill="#FF6C37"/>
<path d="M6.32609 14.5347C6.2873 14.5541 6.26791 14.5929 6.27761 14.6317L6.44243 15.3297C6.48121 15.4267 6.42304 15.543 6.31639 15.5721C6.23883 15.6012 6.15157 15.5721 6.1031 15.5139L5.03662 14.4571L8.51721 10.9766L9.71941 10.996L10.5338 11.8104C10.3399 11.9752 9.16679 13.1095 6.32609 14.5347Z" fill="white"/>
<path d="M6.24845 15.6644C6.17089 15.6644 6.09333 15.6354 6.04485 15.5772L4.98807 14.5204C4.96868 14.501 4.95898 14.4816 4.95898 14.4525C4.95898 14.4235 4.96868 14.4041 4.98807 14.3847L8.46866 10.9041C8.48805 10.8847 8.51713 10.875 8.53652 10.875L9.73873 10.8944C9.76782 10.8944 9.78721 10.9041 9.8066 10.9235L10.621 11.7379C10.6404 11.7573 10.6501 11.7864 10.6501 11.8154C10.6501 11.8445 10.6404 11.8639 10.6113 11.8833L10.5434 11.9415C9.51574 12.8431 8.11963 13.7448 6.38418 14.6077L6.549 15.296C6.57809 15.4221 6.51992 15.5578 6.40357 15.6257C6.3454 15.6547 6.29693 15.6644 6.24845 15.6644ZM5.18197 14.4525L6.18058 15.4415C6.20967 15.4899 6.26784 15.5093 6.31632 15.4802C6.36479 15.4511 6.38418 15.393 6.3551 15.3445L6.19028 14.6464C6.17089 14.5592 6.20967 14.4816 6.28723 14.4428C8.00328 13.58 9.3897 12.688 10.4077 11.8057L9.69025 11.0883L8.5753 11.0689L5.18197 14.4525Z" fill="#FF6C37"/>
<path d="M4.21269 15.2869L5.04648 14.4531L6.28746 15.6941L4.30964 15.5584C4.22238 15.5487 4.16421 15.4711 4.1739 15.3839C4.1739 15.3451 4.1836 15.3063 4.21269 15.2869Z" fill="white"/>
<path d="M6.28728 15.7865L4.29976 15.6507C4.15433 15.641 4.05738 15.515 4.06707 15.3696C4.07677 15.3114 4.09616 15.2532 4.14463 15.2144L4.97842 14.3806C5.0172 14.3419 5.07538 14.3419 5.11416 14.3806L6.35515 15.6216C6.38423 15.6507 6.39393 15.6895 6.37454 15.7283C6.35515 15.7671 6.32606 15.7865 6.28728 15.7865ZM5.04629 14.5939L4.28037 15.3599C4.25128 15.3793 4.25128 15.4277 4.28037 15.4471C4.29006 15.4568 4.29976 15.4665 4.31915 15.4665L6.0352 15.5829L5.04629 14.5939Z" fill="#FF6C37"/>
<path d="M8.17801 11.4234C8.11984 11.4234 8.08105 11.3749 8.08105 11.3265C8.08105 11.2974 8.09075 11.278 8.11014 11.2586L9.05058 10.3181C9.08936 10.2794 9.14753 10.2794 9.18631 10.3181L9.79711 10.9289C9.82619 10.958 9.83589 10.9871 9.82619 11.0259C9.8165 11.055 9.78741 11.0841 9.74863 11.0938L8.1974 11.4234C8.1877 11.4234 8.17801 11.4234 8.17801 11.4234ZM9.11844 10.5217L8.47856 11.1616L9.52564 10.9386L9.11844 10.5217Z" fill="#FF6C37"/>
<path d="M9.71958 10.9917L8.65311 11.2244C8.57555 11.2438 8.49798 11.1953 8.47859 11.1178C8.4689 11.0693 8.47859 11.0208 8.51738 10.982L9.10878 10.3906L9.71958 10.9917Z" fill="white"/>
<path d="M8.63349 11.3265C8.49776 11.3265 8.39111 11.2198 8.39111 11.0841C8.39111 11.0162 8.4202 10.958 8.45898 10.9096L9.05039 10.3181C9.08917 10.2794 9.14734 10.2794 9.18612 10.3181L9.79692 10.9289C9.82601 10.958 9.8357 10.9871 9.82601 11.0259C9.81631 11.055 9.78723 11.0841 9.74844 11.0938L8.68197 11.3265C8.66258 11.3265 8.64319 11.3265 8.63349 11.3265ZM9.11826 10.5217L8.59471 11.0453C8.57532 11.0647 8.57532 11.0841 8.58502 11.1035C8.59471 11.1229 8.6141 11.1325 8.64319 11.1325L9.53515 10.9386L9.11826 10.5217Z" fill="#FF6C37"/>
<path d="M15.6626 5.23791C15.6432 5.17974 15.5753 5.15065 15.5171 5.17004C15.459 5.18944 15.4299 5.2573 15.4493 5.31547C15.4493 5.32517 15.459 5.33486 15.459 5.34456C15.5171 5.4609 15.4978 5.60633 15.4202 5.71298C15.3814 5.76145 15.3911 5.82932 15.4299 5.8681C15.4784 5.90688 15.5462 5.89719 15.585 5.84871C15.7304 5.6645 15.7595 5.43182 15.6626 5.23791Z" fill="#FF6C37"/>
</g>
<defs>
<clipPath id="clip0_25653_1006">
<rect width="19.3939" height="20" fill="white" transform="translate(0.264648 0.015625)"/>
</clipPath>
</defs>
</svg>
