<svg width="20" height="21" viewBox="0 0 20 21" fill="none" xmlns="http://www.w3.org/2000/svg">
<path d="M19.559 11.9961C19.4427 11.6429 19.1381 11.397 18.7442 11.3379C18.5585 11.3101 18.3458 11.322 18.094 11.374C17.6553 11.4648 17.3298 11.4994 17.0922 11.506C17.9889 9.988 18.718 8.25688 19.1377 6.62732C19.8164 3.99237 19.4538 2.79198 19.0299 2.24902C17.9083 0.811872 16.2719 0.0398203 14.2977 0.016197C13.2445 0.00328385 12.32 0.211792 11.8377 0.361736C11.3887 0.282283 10.9058 0.237922 10.3992 0.229719C9.44954 0.214527 8.61045 0.422124 7.89348 0.848788C7.49655 0.714188 6.85949 0.524441 6.12381 0.403362C4.39353 0.118514 2.99897 0.340468 1.97893 1.06307C0.743748 1.93797 0.171154 3.45807 0.277052 5.58114C0.310685 6.2552 0.686708 8.3061 1.27877 10.2511C1.61904 11.3691 1.98188 12.2975 2.35722 13.0107C2.88952 14.0221 3.45908 14.6177 4.09848 14.8316C4.45686 14.9513 5.108 15.0352 5.79286 14.4632C5.87967 14.5687 5.99549 14.6734 6.14919 14.7707C6.34439 14.8941 6.58308 14.995 6.82147 15.0548C7.68055 15.2701 8.48524 15.2163 9.17176 14.9144C9.176 15.0369 9.17926 15.1538 9.18199 15.2549C9.18653 15.4187 9.19108 15.5794 9.19706 15.7296C9.23774 16.7455 9.30667 17.5354 9.51089 18.0881C9.5221 18.1185 9.53718 18.1648 9.55309 18.2139C9.65497 18.5267 9.82533 19.0504 10.2588 19.4605C10.7076 19.8854 11.2505 20.0156 11.7477 20.0156C11.9971 20.0156 12.235 19.9828 12.4437 19.938C13.1876 19.7781 14.0324 19.5346 14.6436 18.662C15.2214 17.837 15.5023 16.5946 15.5531 14.6369C15.5597 14.5815 15.5657 14.5286 15.5716 14.4783L15.5837 14.3748L15.7198 14.3868L15.7549 14.3892C16.5125 14.4238 17.439 14.2627 18.0079 13.9977C18.4575 13.7885 19.8982 13.0258 19.559 11.9961Z" fill="black"/>
<path d="M18.2638 12.1926C16.011 12.6586 15.856 11.8937 15.856 11.8937C18.2346 8.35457 19.229 3.86209 18.3709 2.76258C16.03 -0.236681 11.9777 1.18179 11.9101 1.21855L11.8883 1.2225C11.4432 1.12983 10.9452 1.07468 10.3853 1.06549C9.36601 1.04878 8.59276 1.33348 8.006 1.77966C8.006 1.77966 0.777174 -1.20661 1.11343 5.53541C1.18494 6.96967 3.16353 16.388 5.52344 13.5432C6.38601 12.5029 7.21948 11.6234 7.21948 11.6234C7.63338 11.8991 8.12894 12.0398 8.64843 11.9893L8.68881 11.955C8.67623 12.0841 8.68199 12.2104 8.70494 12.36C8.09697 13.0411 8.27567 13.1607 7.06033 13.4116C5.83053 13.6657 6.55296 14.1181 7.02466 14.2365C7.59649 14.3798 8.91939 14.5829 9.81324 13.3282L9.77764 13.4714C10.0158 13.6627 10.1831 14.7158 10.155 15.6705C10.127 16.6252 10.1083 17.2806 10.2959 17.7926C10.4837 18.3046 10.6707 19.4565 12.2684 19.1132C13.6034 18.8263 14.2952 18.0829 14.3915 16.8428C14.4597 15.9612 14.6144 16.0916 14.624 15.3033L14.748 14.9302C14.891 13.7352 14.7708 13.3496 15.5932 13.5289L15.7932 13.5465C16.3984 13.5741 17.1908 13.4489 17.6558 13.2322C18.6571 12.7662 19.2509 11.9882 18.2636 12.1926H18.2638Z" fill="#336791"/>
<path d="M8.42877 6.18247C8.22576 6.15414 8.04191 6.18034 7.94889 6.25098C7.89663 6.29071 7.88042 6.33674 7.87602 6.36842C7.86436 6.45235 7.92299 6.54517 7.95904 6.59303C8.061 6.72854 8.20993 6.82166 8.35734 6.84217C8.3787 6.84521 8.39998 6.84658 8.42112 6.84658C8.66693 6.84658 8.89047 6.65463 8.91016 6.51297C8.93478 6.33553 8.67791 6.21726 8.42877 6.18254V6.18247ZM15.1542 6.18809C15.1348 6.04901 14.888 6.00936 14.6538 6.04202C14.4198 6.07468 14.193 6.18057 14.212 6.31995C14.2271 6.42835 14.4223 6.61338 14.6534 6.61338C14.6729 6.61338 14.6926 6.61209 14.7125 6.60928C14.8667 6.58786 14.9799 6.48965 15.0336 6.43306C15.1154 6.34677 15.1629 6.2506 15.1542 6.18809Z" fill="white"/>
<path d="M19.0131 12.1427C18.9272 11.8822 18.6507 11.7985 18.1913 11.8936C16.8275 12.1758 16.339 11.9803 16.1787 11.8619C17.2388 10.2424 18.1109 8.28479 18.5814 6.45834C18.8042 5.59316 18.9273 4.78966 18.9374 4.13474C18.9485 3.41594 18.8264 2.88771 18.5746 2.56504C17.5594 1.26423 16.0694 0.566463 14.2658 0.547321C13.0259 0.533345 11.9782 0.851539 11.7752 0.94102C11.3475 0.834373 10.8812 0.768896 10.3736 0.76054C9.44282 0.745424 8.6382 0.968897 7.97205 1.42443C7.68269 1.31641 6.93488 1.05899 6.02035 0.911244C4.4393 0.65602 3.18291 0.849413 2.28633 1.48633C1.21651 2.24639 0.72262 3.605 0.818292 5.52434C0.850486 6.17008 1.21742 8.15657 1.79645 10.059C2.55865 12.5629 3.3872 13.9804 4.25894 14.272C4.36097 14.3061 4.47861 14.33 4.60837 14.33C4.92637 14.33 5.31626 14.1862 5.7219 13.6972C6.21667 13.102 6.72847 12.5213 7.25667 11.9558C7.59936 12.1402 7.97584 12.2432 8.36088 12.2535C8.36164 12.2636 8.36262 12.2737 8.36353 12.2838C8.29725 12.363 8.23235 12.4434 8.16885 12.5249C7.90206 12.8645 7.84654 12.9353 6.98776 13.1126C6.74346 13.1631 6.09466 13.2972 6.08512 13.7533C6.07482 14.2516 6.85209 14.4608 6.94064 14.483C7.24925 14.5605 7.54657 14.5987 7.8301 14.5987C8.51965 14.5987 9.12649 14.3714 9.61144 13.9317C9.59652 15.7081 9.67037 17.4585 9.88308 17.9918C10.0573 18.4284 10.4829 19.4954 11.8271 19.4954C12.0244 19.4954 12.2415 19.4723 12.4803 19.421C13.8833 19.1194 14.4925 18.4976 14.7282 17.1268C14.8543 16.3942 15.0707 14.6447 15.1726 13.7063C15.3874 13.7736 15.6639 13.8043 15.9629 13.8042C16.5865 13.8042 17.3061 13.6714 17.7573 13.4614C18.2642 13.2253 19.179 12.646 19.0131 12.1427ZM15.6721 5.8016C15.6674 6.07862 15.6294 6.33012 15.5891 6.59264C15.5457 6.87498 15.5009 7.16689 15.4896 7.52125C15.4784 7.8661 15.5214 8.22463 15.5629 8.57139C15.6468 9.27173 15.733 9.99274 15.3996 10.7042C15.3442 10.6058 15.2949 10.5041 15.2519 10.3997C15.2104 10.2989 15.1204 10.1371 14.9958 9.91321C14.5111 9.0415 13.376 7.00016 13.9571 6.16719C14.1302 5.91926 14.5694 5.66434 15.6721 5.8016ZM14.3355 1.10828C15.9516 1.14406 17.2299 1.75029 18.135 2.91004C18.8292 3.79961 18.0648 7.84726 15.8519 11.3392C15.8296 11.3108 15.8073 11.2825 15.7848 11.2544L15.7567 11.2193C16.3286 10.2723 16.2168 9.33531 16.1172 8.50462C16.0763 8.16371 16.0377 7.84172 16.0475 7.53925C16.0577 7.2187 16.1 6.94373 16.1409 6.67787C16.1911 6.35025 16.2422 6.01125 16.2281 5.61162C16.2387 5.56969 16.2429 5.52017 16.2374 5.46137C16.2014 5.07816 15.7651 3.93124 14.8758 2.89318C14.3893 2.32538 13.6799 1.68998 12.7113 1.26142C13.1279 1.17482 13.6976 1.09408 14.3355 1.10828ZM5.29262 13.3393C4.8457 13.8782 4.53709 13.7748 4.43559 13.741C3.77429 13.5198 3.00694 12.1182 2.33042 9.89559C1.74502 7.97245 1.40293 6.03859 1.37581 5.49632C1.29037 3.7813 1.70495 2.58608 2.60812 1.94376C4.07797 0.898558 6.49455 1.52416 7.46559 1.84144C7.45165 1.85527 7.43711 1.86818 7.42332 1.88224C5.82984 3.49592 5.86764 6.25295 5.87158 6.4215C5.87143 6.48652 5.87688 6.57859 5.88431 6.70521C5.91173 7.16895 5.96278 8.032 5.82643 9.00937C5.69978 9.91762 5.97899 10.8066 6.59234 11.4484C6.65529 11.5141 6.72145 11.5767 6.79058 11.6358C6.51758 11.929 5.92423 12.5774 5.29262 13.3393ZM6.99541 11.061C6.50106 10.5438 6.27654 9.82426 6.37933 9.08685C6.52326 8.05441 6.47016 7.1552 6.4416 6.67209C6.43759 6.60449 6.43402 6.54524 6.43198 6.49853C6.66476 6.29154 7.74352 5.71197 8.51283 5.88872C8.86386 5.96932 9.07778 6.20904 9.16671 6.62135C9.62697 8.75604 9.22761 9.64576 8.90674 10.3608C8.84061 10.5081 8.77811 10.6473 8.72478 10.7913L8.68342 10.9027C8.57874 11.1842 8.48132 11.4459 8.42095 11.6945C7.8954 11.6929 7.38416 11.4678 6.99541 11.061V11.061ZM7.07608 13.9399C6.92261 13.9015 6.7846 13.8347 6.70362 13.7793C6.77126 13.7474 6.89163 13.704 7.1004 13.6608C8.11068 13.4523 8.26672 13.3051 8.60745 12.8713C8.68554 12.7718 8.7741 12.6591 8.89674 12.5217L8.89689 12.5216C9.07952 12.3165 9.16307 12.3513 9.31457 12.4143C9.43736 12.4652 9.55697 12.6196 9.60545 12.7894C9.62841 12.8696 9.65416 13.0219 9.56985 13.1404C8.8581 14.1397 7.82093 14.1268 7.07608 13.9399ZM12.3634 18.8736C11.1274 19.1392 10.6898 18.5068 10.4014 17.7839C10.2153 17.3172 10.1238 15.2127 10.1887 12.8885C10.1896 12.8576 10.1852 12.8278 10.1767 12.7997C10.1691 12.7442 10.1576 12.6893 10.1421 12.6355C10.0456 12.2973 9.81043 12.0144 9.52826 11.8971C9.41615 11.8506 9.21042 11.7651 8.96317 11.8285C9.01589 11.6107 9.10732 11.3646 9.20648 11.0983L9.24806 10.9862C9.29488 10.8599 9.35366 10.729 9.41578 10.5905C9.75158 9.84242 10.2115 8.8178 9.71234 6.50308C9.52539 5.63608 8.90105 5.21268 7.95463 5.31105C7.38726 5.36992 6.86815 5.59947 6.60923 5.73111C6.55356 5.75936 6.50265 5.78671 6.45508 5.81329C6.52735 4.93976 6.80035 3.30724 7.82161 2.27434C8.46466 1.62412 9.32101 1.30297 10.3644 1.32029C12.4203 1.35401 13.7386 2.41198 14.4826 3.29364C15.1238 4.05331 15.4709 4.8186 15.6095 5.23137C14.5675 5.1251 13.8589 5.33133 13.4997 5.84634C12.7182 6.96659 13.9272 9.14086 14.5083 10.1858C14.6149 10.3773 14.7068 10.5428 14.7358 10.6132C14.925 11.073 15.17 11.3801 15.3488 11.6041C15.4037 11.6728 15.4568 11.7394 15.4973 11.7976C15.1817 11.8888 14.6149 12.0996 14.6665 13.1533C14.6249 13.6819 14.3286 16.1572 14.1781 17.0317C13.9794 18.187 13.5554 18.6173 12.3634 18.8737V18.8736ZM17.5222 12.9536C17.1996 13.1038 16.6595 13.2165 16.1466 13.2407C15.5799 13.2673 15.2915 13.177 15.2236 13.1215C15.1918 12.4649 15.4355 12.3963 15.6934 12.3237C15.7339 12.3123 15.7735 12.3012 15.8117 12.2878C15.8354 12.3072 15.8614 12.3264 15.8898 12.3452C16.3452 12.6466 17.1575 12.6791 18.3043 12.4418L18.3169 12.4392C18.1622 12.5843 17.8975 12.7789 17.5222 12.9536Z" fill="white"/>
</svg>
