<svg width="21" height="21" viewBox="0 0 21 21" fill="none" xmlns="http://www.w3.org/2000/svg">
<g clip-path="url(#clip0_25653_1009)">
<path d="M10.1687 0.09375C5.10363 0.0937504 5.41993 2.29025 5.41993 2.29025L5.42557 4.5658H10.259V5.24903H3.50576C3.50576 5.24903 0.264648 4.88146 0.264648 9.99211C0.264648 15.1028 3.09356 14.9215 3.09356 14.9215H4.78187V12.55C4.78187 12.55 4.69087 9.72108 7.56561 9.72108H12.3595C12.3595 9.72108 15.0529 9.76462 15.0529 7.11803V2.74197C15.0529 2.74197 15.4618 0.09375 10.1687 0.09375ZM7.5035 1.62396C7.98439 1.62396 8.37306 2.01263 8.37306 2.49352C8.37306 2.97441 7.98439 3.36309 7.5035 3.36309C7.02261 3.36309 6.63393 2.97441 6.63393 2.49352C6.63393 2.01263 7.02261 1.62396 7.5035 1.62396Z" fill="url(#paint0_linear_25653_1009)"/>
<path d="M10.3125 19.938C15.3775 19.938 15.0612 17.7415 15.0612 17.7415L15.0556 15.4659H10.2221V14.7827H16.9754C16.9754 14.7827 20.2165 15.1502 20.2165 10.0396C20.2165 4.92894 17.3876 5.11017 17.3876 5.11017H15.6993V7.48171C15.6993 7.48171 15.7903 10.3106 12.9155 10.3106H8.12162C8.12162 10.3106 5.42822 10.2671 5.42822 12.9137V17.2897C5.42822 17.2897 5.01929 19.938 10.3125 19.938ZM12.9776 18.4077C12.4967 18.4077 12.1081 18.0191 12.1081 17.5382C12.1081 17.0573 12.4967 16.6686 12.9776 16.6686C13.4585 16.6686 13.8472 17.0573 13.8472 17.5382C13.8472 18.0191 13.4585 18.4077 12.9776 18.4077Z" fill="url(#paint1_linear_25653_1009)"/>
</g>
<defs>
<linearGradient id="paint0_linear_25653_1009" x1="2.18206" y1="1.87902" x2="12.0695" y2="11.6678" gradientUnits="userSpaceOnUse">
<stop stop-color="#387EB8"/>
<stop offset="1" stop-color="#366994"/>
</linearGradient>
<linearGradient id="paint1_linear_25653_1009" x1="8.25093" y1="8.16097" x2="18.869" y2="18.1985" gradientUnits="userSpaceOnUse">
<stop stop-color="#FFE052"/>
<stop offset="1" stop-color="#FFC331"/>
</linearGradient>
<clipPath id="clip0_25653_1009">
<rect width="20" height="20" fill="white" transform="translate(0.264648 0.015625)"/>
</clipPath>
</defs>
</svg>
