<svg width="21" height="21" viewBox="0 0 21 21" fill="none" xmlns="http://www.w3.org/2000/svg">
<path fill-rule="evenodd" clip-rule="evenodd" d="M7.58289 0.015625C6.47953 0.0164405 5.58656 0.911853 5.58738 2.01522C5.58656 3.11858 6.48034 4.01399 7.58371 4.01481H9.58004V2.01603C9.58085 0.912668 8.68707 0.017256 7.58289 0.015625C7.58371 0.015625 7.58371 0.015625 7.58289 0.015625ZM7.58289 5.34896H2.26098C1.15762 5.34977 0.263835 6.24518 0.264651 7.34855C0.26302 8.45191 1.1568 9.34732 2.26016 9.34895H7.58289C8.68626 9.34814 9.58004 8.45273 9.57922 7.34936C9.58004 6.24518 8.68626 5.34977 7.58289 5.34896Z" fill="#36C5F0"/>
<path fill-rule="evenodd" clip-rule="evenodd" d="M20.2247 7.34855C20.2255 6.24518 19.3318 5.34977 18.2284 5.34896C17.125 5.34977 16.2313 6.24518 16.2321 7.34855V9.34895H18.2284C19.3318 9.34814 20.2255 8.45273 20.2247 7.34855ZM14.902 7.34855V2.01522C14.9028 0.912668 14.0098 0.017256 12.9065 0.015625C11.8031 0.0164405 10.9093 0.911853 10.9102 2.01522V7.34855C10.9085 8.45191 11.8023 9.34732 12.9057 9.34895C14.009 9.34814 14.9028 8.45273 14.902 7.34855Z" fill="#2EB67D"/>
<path fill-rule="evenodd" clip-rule="evenodd" d="M12.9055 20.0138C14.0089 20.013 14.9027 19.1176 14.9018 18.0142C14.9027 16.9109 14.0089 16.0155 12.9055 16.0146H10.9092V18.0142C10.9084 19.1168 11.8021 20.0122 12.9055 20.0138ZM12.9055 14.6797H18.2282C19.3316 14.6789 20.2254 13.7835 20.2246 12.6801C20.2262 11.5767 19.3324 10.6813 18.2291 10.6797H12.9063C11.803 10.6805 10.9092 11.5759 10.91 12.6793C10.9092 13.7835 11.8021 14.6789 12.9055 14.6797Z" fill="#ECB22E"/>
<path fill-rule="evenodd" clip-rule="evenodd" d="M0.264649 12.6793C0.263834 13.7826 1.15761 14.6781 2.26098 14.6789C3.36434 14.6781 4.25812 13.7826 4.25731 12.6793V10.6797H2.26098C1.15761 10.6805 0.263834 11.5759 0.264649 12.6793ZM5.58738 12.6793V18.0126C5.58575 19.116 6.47953 20.0114 7.58289 20.013C8.68625 20.0122 9.58004 19.1168 9.57922 18.0134V12.6809C9.58085 11.5775 8.68707 10.6821 7.58371 10.6805C6.47953 10.6805 5.58656 11.5759 5.58738 12.6793Z" fill="#E01E5A"/>
</svg>
