<svg width="26" height="26" viewBox="0 0 26 26" fill="none" xmlns="http://www.w3.org/2000/svg">
<g clip-path="url(#clip0_25684_2947)">
<path fill-rule="evenodd" clip-rule="evenodd" d="M25.2646 13.375C25.2646 20.2786 19.6682 25.875 12.7646 25.875C5.86109 25.875 0.264648 20.2786 0.264648 13.375C0.264648 6.47144 5.86109 0.875 12.7646 0.875C19.6682 0.875 25.2646 6.47144 25.2646 13.375ZM13.2126 10.1031C11.9968 10.6087 9.56687 11.6554 5.92287 13.243C5.33114 13.4784 5.02117 13.7086 4.99295 13.9336C4.94526 14.3141 5.42164 14.4639 6.07035 14.6678C6.15859 14.6956 6.25002 14.7243 6.34375 14.7548C6.98198 14.9623 7.84051 15.205 8.28682 15.2146C8.69167 15.2234 9.14353 15.0565 9.6424 14.7139C13.0471 12.4156 14.8046 11.254 14.915 11.2289C14.9928 11.2113 15.1007 11.189 15.1738 11.254C15.2469 11.319 15.2397 11.442 15.2319 11.475C15.1847 11.6762 13.3148 13.4147 12.3471 14.3144C12.0454 14.5948 11.8314 14.7938 11.7876 14.8392C11.6897 14.941 11.5898 15.0373 11.4938 15.1298C10.9009 15.7014 10.4562 16.13 11.5184 16.83C12.0289 17.1664 12.4373 17.4445 12.8448 17.722C13.2898 18.0251 13.7337 18.3274 14.308 18.7038C14.4543 18.7997 14.5941 18.8994 14.7302 18.9964C15.2481 19.3656 15.7133 19.6973 16.2882 19.6444C16.6222 19.6137 16.9672 19.2996 17.1424 18.3629C17.5565 16.1491 18.3705 11.3526 18.5586 9.37601C18.5751 9.20284 18.5544 8.98122 18.5377 8.88393C18.5211 8.78664 18.4863 8.64803 18.3598 8.54542C18.2101 8.42389 17.9788 8.39827 17.8754 8.40009C17.4053 8.40837 16.684 8.65918 13.2126 10.1031Z" fill="white"/>
</g>
<defs>
<clipPath id="clip0_25684_2947">
<rect width="25" height="25" fill="white" transform="translate(0.264648 0.875)"/>
</clipPath>
</defs>
</svg>
