<svg width="21" height="21" viewBox="0 0 21 21" fill="none" xmlns="http://www.w3.org/2000/svg">
<g clip-path="url(#clip0_25653_973)">
<path d="M10.2871 0.203125L0.455078 10.0034L10.2871 19.8489L20.0739 10.0034L10.2871 0.203125Z" fill="#019833"/>
<path d="M10.2853 1.10857V0.28125L0.519531 10.0107H1.35634L10.2853 1.10857Z" fill="#66FE98"/>
<path d="M10.2852 1.10857V0.28125L20.0813 10.0107H19.1757L10.2852 1.10857Z" fill="#45FE02"/>
<path d="M10.2853 18.9516V19.8675L0.519531 10.0078H1.35634L10.2853 18.9516Z" fill="#017D17"/>
<path d="M10.2852 18.9516V19.8675L20.0813 10.0078H19.1757L10.2852 18.9516Z" fill="#005D04"/>
<path d="M5.37968 17.9973H3.48661L2.74731 17.2768V3.51935H2.16054L1.6582 3.01632V1.4785L2.17859 0.914062H8.79921L9.39447 1.51002V2.96963L8.89984 3.57251H8.3996V8.22293L13.1068 3.57251H12.844L12.2965 2.98208V1.43437L12.8344 0.9406H19.517L20.0459 1.47017V2.93398L5.37968 17.9973Z" fill="black"/>
<path d="M10.2853 20.0035L0.303711 10.0086L10.2853 0.0546875L20.2259 10.0086L10.2853 20.0035ZM0.60947 10.0086L10.2853 19.6975L19.92 10.0086L10.2853 0.360913L0.60947 10.0086Z" fill="black"/>
<path d="M8.71422 1.82218L9.00831 1.63222L8.70784 1.32031H2.3392L2.01562 1.64436V2.87004L2.37438 3.22926L2.54551 2.87004L2.32045 2.64459V1.78055L2.48924 1.63027L8.50201 1.63767L8.71422 1.82218Z" fill="#FEFEFE"/>
<path d="M3.53012 2.84375V17.1888L3.73183 17.3809L3.5702 17.6863L3.146 17.2685V3.21566L3.53012 2.84375Z" fill="#FEFEFE"/>
<path d="M2.5012 2.84375L2.37451 3.23208H3.14385L3.58891 2.84375H2.5012Z" fill="#808080"/>
<path d="M13.2631 2.84713L12.9941 2.65709V1.88697L13.2755 1.60518H19.147L19.3722 1.90573L19.6926 1.65289L19.3628 1.35156H13.0504L12.7361 1.66619V2.90129L13.067 3.20075M7.96081 9.13927L7.34766 10.6291L14.2697 3.67896L14.2358 2.83818L7.96081 9.13927Z" fill="#FEFEFE"/>
<path d="M8.70029 1.81725L9.00823 1.63281V2.84153L8.65671 3.19351H7.9736L7.96092 9.13865L7.3501 10.625V2.84153H8.49088L8.70309 2.66884L8.70029 1.81725Z" fill="#808080"/>
<path d="M19.3517 1.8252L19.693 1.65625V2.75999L5.16059 17.6881H3.57031L3.72549 17.3947L4.94689 17.3948L19.3538 2.4989L19.3517 1.8252Z" fill="#808080"/>
<path d="M14.2362 2.83594L13.8822 3.1915L13.0674 3.19851L13.2664 2.84131C13.273 2.84131 14.2362 2.83594 14.2362 2.83594Z" fill="#808080"/>
<path d="M13.2199 1.59375L12.995 1.81889V2.64566L13.192 2.84285H14.2326V3.64169L7.34853 10.6287V2.85274H8.49258L8.72729 2.61772V1.78107L8.51063 1.61344H2.48993L2.29297 1.81071V2.66535L2.4932 2.86589H3.54044V17.1851L3.7374 17.3823H4.92744L19.3538 2.47632V1.81889L19.1289 1.59375H13.2199Z" fill="#CCCCCC"/>
<path d="M4.93548 17.4048H3.72949L3.5214 17.1964V2.88832H2.48529L2.27393 2.67665V1.80622L2.48202 1.59789H8.51712L8.7463 1.77517V2.62902L8.50046 2.87517H7.36747V10.5858L14.2135 3.63727V2.86536H13.184L12.9759 2.65696V1.81447L13.2119 1.57812H19.1367L19.3728 1.81447V2.48746L19.3675 2.49299L4.93548 17.4048ZM3.74529 17.3668H4.91937L19.3348 2.47213V1.83019L19.121 1.61618H13.2277L13.0139 1.83019V2.64124L13.1998 2.82731H14.2516V3.65291L14.2461 3.65844L7.32949 10.6785V2.83719H8.48467L8.70825 2.61322V1.79384L8.50412 1.63587H2.49774L2.3119 1.82202V2.66093L2.50109 2.85034H3.55937V17.1806L3.74529 17.3668Z" fill="#808080"/>
<path d="M10.7757 11.2504C10.7647 11.2526 10.7546 11.2577 10.7461 11.2651L10.4671 11.5051C10.4588 11.5127 10.4526 11.5223 10.4491 11.533L10.17 12.3154C10.1616 12.3388 10.1674 12.365 10.1848 12.3828L10.3982 12.5964C10.4106 12.6083 10.4271 12.6148 10.4442 12.6146H11.3059C11.323 12.6148 11.3395 12.6083 11.3518 12.5964L11.5767 12.3696C11.5845 12.3619 11.5901 12.3522 11.5931 12.3417L11.8328 11.5182C11.8394 11.4955 11.8331 11.4709 11.8164 11.4542L11.6309 11.2684C11.6186 11.2565 11.602 11.25 11.585 11.2504H10.7889C10.7845 11.2499 10.7801 11.2499 10.7757 11.2504ZM9.19672 13.456C9.17251 13.4612 9.15345 13.4798 9.14746 13.5037L9.04076 13.9278C9.03213 13.9625 9.05321 13.9977 9.08792 14.0064C9.0929 14.0076 9.09796 14.0082 9.1031 14.0083H9.61034L8.35298 17.6029C8.34162 17.6369 8.35991 17.6736 8.39384 17.685C8.40022 17.6872 8.40691 17.6883 8.41376 17.6884H10.2439C10.2721 17.6888 10.2973 17.6708 10.3063 17.644L10.4261 17.2577C10.4366 17.2235 10.4173 17.1872 10.3831 17.1767C10.3769 17.1749 10.3703 17.1739 10.3637 17.1739H9.9501L11.1943 13.5416C11.2057 13.5075 11.1874 13.4708 11.1534 13.4595C11.1471 13.4573 11.1403 13.4561 11.1335 13.456H9.20979C9.20543 13.4556 9.20107 13.4556 9.19672 13.456ZM15.0205 13.4692C15.0064 13.4721 14.9936 13.4796 14.9843 13.4906L14.6035 13.9212H13.9978L13.594 13.5021C13.5819 13.4896 13.5654 13.4825 13.5481 13.4823H12.102C12.0748 13.4824 12.0505 13.4995 12.0412 13.5251L11.9083 13.9229C11.8969 13.9568 11.9152 13.9935 11.9491 14.005C11.9555 14.0071 11.9622 14.0082 11.969 14.0083H12.3564L11.1516 17.5634C11.1402 17.5974 11.1585 17.6342 11.1924 17.6456C11.1988 17.6477 11.2056 17.6489 11.2124 17.649H12.752C12.7792 17.6489 12.8034 17.6318 12.8127 17.6062L12.9309 17.2594C12.9422 17.2254 12.924 17.1886 12.8901 17.1773C12.8836 17.1751 12.8769 17.174 12.8702 17.1739H12.601L13.3692 14.7528H14.7594L13.8829 17.5651C13.8724 17.5994 13.8917 17.6356 13.9259 17.6461C13.9322 17.648 13.9387 17.649 13.9453 17.649H15.4307C15.4566 17.6487 15.4798 17.6332 15.4899 17.6095L15.6228 17.2906C15.636 17.2574 15.6198 17.2196 15.5865 17.2065C15.5792 17.2036 15.5715 17.202 15.5637 17.2019H15.2945L16.0759 14.7397H17.3988L16.5092 17.5651C16.4987 17.5994 16.518 17.6356 16.5521 17.6461C16.5584 17.648 16.565 17.649 16.5716 17.649H18.2031C18.2299 17.6491 18.2541 17.6328 18.2639 17.6079L18.3968 17.261C18.4091 17.2274 18.3918 17.1902 18.3582 17.1779C18.3511 17.1753 18.3436 17.1739 18.3361 17.1739H18.0127L18.9959 13.9771C19.0025 13.9569 18.9988 13.9349 18.9861 13.9179L18.6808 13.507C18.6682 13.491 18.6486 13.4818 18.6282 13.4823H17.4612C17.4433 13.482 17.4261 13.4892 17.4136 13.5021L17.0459 13.9064H16.4025L16.0217 13.489C16.0092 13.476 15.992 13.4689 15.9741 13.4692H15.0335C15.0292 13.4688 15.0248 13.4688 15.0205 13.4692Z" fill="#CCCCCC"/>
<path d="M10.2926 12.7019C10.3333 12.7411 10.3865 12.7626 10.4405 12.7626C10.4417 12.7626 10.4428 12.7626 10.4441 12.7625H11.3031C11.3609 12.7643 11.4155 12.742 11.4598 12.6995L11.6842 12.4731C11.7101 12.4471 11.7292 12.4146 11.7391 12.3801L11.9787 11.5567C12.0009 11.4805 11.9799 11.3984 11.9238 11.3426L11.7364 11.1548C11.6947 11.1146 11.64 11.0925 11.5849 11.0941H10.7942C10.7828 11.0935 10.7715 11.0937 10.7603 11.0949L10.7443 11.0974C10.7077 11.1051 10.6736 11.1221 10.6469 11.1456L10.3678 11.3856L10.3646 11.3885C10.3375 11.4132 10.317 11.4445 10.3052 11.4793L10.0267 12.2599C9.99879 12.3378 10.0182 12.4262 10.0771 12.4861L10.2926 12.7019ZM11.5497 11.3983L11.6723 11.521L11.4531 12.274L11.2705 12.4583L10.4793 12.4584L10.3316 12.3105L10.5851 11.6L10.8196 11.3983H11.5497Z" fill="black"/>
<path d="M19.1081 13.8229L18.8028 13.412L18.8001 13.4085C18.7586 13.3557 18.6943 13.3251 18.627 13.326H17.4637C17.4032 13.3246 17.3459 13.349 17.3042 13.392L16.9786 13.75H16.4696L16.134 13.3822L16.1309 13.3788C16.0894 13.3359 16.0319 13.3129 15.974 13.3128H15.0389C15.0277 13.3122 15.0162 13.3124 15.005 13.3136L14.9893 13.316C14.9425 13.3258 14.8996 13.3512 14.8703 13.3855L14.5349 13.7648H14.0624L13.7033 13.3921C13.6632 13.3506 13.607 13.3265 13.5481 13.326H12.1015C12.0109 13.3262 11.9292 13.3837 11.8982 13.4689L11.7641 13.8701C11.726 13.9835 11.7873 14.1068 11.9007 14.1449C11.9222 14.1521 11.9446 14.1559 11.969 14.1561H12.1442L11.0073 17.511C10.9695 17.6242 11.0307 17.7474 11.144 17.7855C11.1656 17.7927 11.188 17.7965 11.2123 17.7967H12.7524C12.8431 17.7965 12.9249 17.739 12.9567 17.651L13.0751 17.3034C13.113 17.1901 13.0518 17.0669 12.9384 17.0288C12.9168 17.0216 12.8944 17.0177 12.8702 17.0175H12.8088L13.4804 14.9007H14.5526L13.7374 17.5163C13.7024 17.6307 13.767 17.7522 13.8811 17.7872C13.9022 17.7936 13.9248 17.7963 13.9453 17.7967H15.432C15.5184 17.796 15.5961 17.7442 15.6302 17.6637L15.7642 17.3423C15.8082 17.2311 15.7537 17.1048 15.643 17.0609C15.6183 17.051 15.5924 17.0459 15.5637 17.0454H15.5024L16.1871 14.8875H17.1914L16.3636 17.5165C16.3288 17.6308 16.3934 17.7523 16.5074 17.7872C16.5281 17.7935 16.5495 17.7967 16.5704 17.7967H16.5716H18.2021C18.2922 17.7962 18.3728 17.7421 18.4059 17.658L18.5396 17.3089C18.5807 17.1967 18.5228 17.0718 18.4105 17.0307C18.3869 17.0221 18.3621 17.0177 18.3361 17.0175H18.2186L19.1405 14.02C19.1624 13.9528 19.1502 13.8788 19.1081 13.8229ZM17.8067 17.3217H18.209L18.1435 17.4925H16.6901L17.6062 14.5833H15.9645L15.0867 17.3497H15.4316L15.372 17.4925H14.0635L14.9661 14.5965H13.2578L12.3931 17.3217H12.7475L12.6893 17.4925H11.3347L12.5685 13.8519H12.0909L12.165 13.6302H13.5103L13.9331 14.069H14.672L15.0716 13.617L15.9365 13.617L16.3353 14.0542H17.1132L17.4988 13.6302H18.586L18.8378 13.9692L17.8067 17.3217Z" fill="black"/>
<path d="M10.4281 17.0246C10.4071 17.0181 10.3861 17.0156 10.364 17.015H10.1632L11.3388 13.5832C11.3768 13.4697 11.3155 13.3466 11.202 13.3084C11.1806 13.3013 11.1582 13.2974 11.1338 13.2972H9.21549C9.20413 13.2966 9.19277 13.2968 9.18148 13.298L9.16491 13.3006C9.08351 13.3181 9.02032 13.3792 9.00016 13.4599L8.89339 13.8843C8.86452 14.0002 8.93534 14.1181 9.05168 14.1473C9.06818 14.1514 9.08522 14.1536 9.10335 14.1536H9.39619L8.20903 17.5478C8.17098 17.6613 8.23238 17.7844 8.34569 17.8225C8.36724 17.8297 8.38965 17.8335 8.41401 17.8337H10.242H10.2451C10.3388 17.8337 10.4213 17.7743 10.4518 17.6823L10.5718 17.2954C10.6068 17.1811 10.5422 17.0595 10.4281 17.0246ZM8.53767 17.5295L9.82491 13.8494H9.21588L9.27829 13.6014H11.0109L9.73744 17.3192H10.2459L10.1807 17.5295H8.53767Z" fill="black"/>
</g>
<defs>
<clipPath id="clip0_25653_973">
<rect width="20" height="20" fill="white" transform="translate(0.264648 0.015625)"/>
</clipPath>
</defs>
</svg>
